%TF.GenerationSoftware,KiCad,Pcbnew,7.0.8-7.0.8~ubuntu22.04.1*%
%TF.CreationDate,2023-10-22T17:04:20-05:00*%
%TF.ProjectId,BT_PANELIZED,42545f50-414e-4454-9c49-5a45442e6b69,000*%
%TF.SameCoordinates,Original*%
%TF.FileFunction,Other,Comment*%
%FSLAX46Y46*%
G04 Gerber Fmt 4.6, Leading zero omitted, Abs format (unit mm)*
G04 Created by KiCad (PCBNEW 7.0.8-7.0.8~ubuntu22.04.1) date 2023-10-22 17:04:20*
%MOMM*%
%LPD*%
G01*
G04 APERTURE LIST*
%ADD10C,0.150000*%
G04 APERTURE END LIST*
D10*
X135955237Y-36879580D02*
X135907618Y-36927200D01*
X135907618Y-36927200D02*
X135764761Y-36974819D01*
X135764761Y-36974819D02*
X135669523Y-36974819D01*
X135669523Y-36974819D02*
X135526666Y-36927200D01*
X135526666Y-36927200D02*
X135431428Y-36831961D01*
X135431428Y-36831961D02*
X135383809Y-36736723D01*
X135383809Y-36736723D02*
X135336190Y-36546247D01*
X135336190Y-36546247D02*
X135336190Y-36403390D01*
X135336190Y-36403390D02*
X135383809Y-36212914D01*
X135383809Y-36212914D02*
X135431428Y-36117676D01*
X135431428Y-36117676D02*
X135526666Y-36022438D01*
X135526666Y-36022438D02*
X135669523Y-35974819D01*
X135669523Y-35974819D02*
X135764761Y-35974819D01*
X135764761Y-35974819D02*
X135907618Y-36022438D01*
X135907618Y-36022438D02*
X135955237Y-36070057D01*
X136383809Y-35974819D02*
X136383809Y-36784342D01*
X136383809Y-36784342D02*
X136431428Y-36879580D01*
X136431428Y-36879580D02*
X136479047Y-36927200D01*
X136479047Y-36927200D02*
X136574285Y-36974819D01*
X136574285Y-36974819D02*
X136764761Y-36974819D01*
X136764761Y-36974819D02*
X136859999Y-36927200D01*
X136859999Y-36927200D02*
X136907618Y-36879580D01*
X136907618Y-36879580D02*
X136955237Y-36784342D01*
X136955237Y-36784342D02*
X136955237Y-35974819D01*
X137288571Y-35974819D02*
X137859999Y-35974819D01*
X137574285Y-36974819D02*
X137574285Y-35974819D01*
X139145714Y-35974819D02*
X139336190Y-35974819D01*
X139336190Y-35974819D02*
X139431428Y-36022438D01*
X139431428Y-36022438D02*
X139526666Y-36117676D01*
X139526666Y-36117676D02*
X139574285Y-36308152D01*
X139574285Y-36308152D02*
X139574285Y-36641485D01*
X139574285Y-36641485D02*
X139526666Y-36831961D01*
X139526666Y-36831961D02*
X139431428Y-36927200D01*
X139431428Y-36927200D02*
X139336190Y-36974819D01*
X139336190Y-36974819D02*
X139145714Y-36974819D01*
X139145714Y-36974819D02*
X139050476Y-36927200D01*
X139050476Y-36927200D02*
X138955238Y-36831961D01*
X138955238Y-36831961D02*
X138907619Y-36641485D01*
X138907619Y-36641485D02*
X138907619Y-36308152D01*
X138907619Y-36308152D02*
X138955238Y-36117676D01*
X138955238Y-36117676D02*
X139050476Y-36022438D01*
X139050476Y-36022438D02*
X139145714Y-35974819D01*
X140002857Y-35974819D02*
X140002857Y-36784342D01*
X140002857Y-36784342D02*
X140050476Y-36879580D01*
X140050476Y-36879580D02*
X140098095Y-36927200D01*
X140098095Y-36927200D02*
X140193333Y-36974819D01*
X140193333Y-36974819D02*
X140383809Y-36974819D01*
X140383809Y-36974819D02*
X140479047Y-36927200D01*
X140479047Y-36927200D02*
X140526666Y-36879580D01*
X140526666Y-36879580D02*
X140574285Y-36784342D01*
X140574285Y-36784342D02*
X140574285Y-35974819D01*
X140907619Y-35974819D02*
X141479047Y-35974819D01*
X141193333Y-36974819D02*
X141193333Y-35974819D01*
X135955237Y-53729580D02*
X135907618Y-53777200D01*
X135907618Y-53777200D02*
X135764761Y-53824819D01*
X135764761Y-53824819D02*
X135669523Y-53824819D01*
X135669523Y-53824819D02*
X135526666Y-53777200D01*
X135526666Y-53777200D02*
X135431428Y-53681961D01*
X135431428Y-53681961D02*
X135383809Y-53586723D01*
X135383809Y-53586723D02*
X135336190Y-53396247D01*
X135336190Y-53396247D02*
X135336190Y-53253390D01*
X135336190Y-53253390D02*
X135383809Y-53062914D01*
X135383809Y-53062914D02*
X135431428Y-52967676D01*
X135431428Y-52967676D02*
X135526666Y-52872438D01*
X135526666Y-52872438D02*
X135669523Y-52824819D01*
X135669523Y-52824819D02*
X135764761Y-52824819D01*
X135764761Y-52824819D02*
X135907618Y-52872438D01*
X135907618Y-52872438D02*
X135955237Y-52920057D01*
X136383809Y-52824819D02*
X136383809Y-53634342D01*
X136383809Y-53634342D02*
X136431428Y-53729580D01*
X136431428Y-53729580D02*
X136479047Y-53777200D01*
X136479047Y-53777200D02*
X136574285Y-53824819D01*
X136574285Y-53824819D02*
X136764761Y-53824819D01*
X136764761Y-53824819D02*
X136859999Y-53777200D01*
X136859999Y-53777200D02*
X136907618Y-53729580D01*
X136907618Y-53729580D02*
X136955237Y-53634342D01*
X136955237Y-53634342D02*
X136955237Y-52824819D01*
X137288571Y-52824819D02*
X137859999Y-52824819D01*
X137574285Y-53824819D02*
X137574285Y-52824819D01*
X139145714Y-52824819D02*
X139336190Y-52824819D01*
X139336190Y-52824819D02*
X139431428Y-52872438D01*
X139431428Y-52872438D02*
X139526666Y-52967676D01*
X139526666Y-52967676D02*
X139574285Y-53158152D01*
X139574285Y-53158152D02*
X139574285Y-53491485D01*
X139574285Y-53491485D02*
X139526666Y-53681961D01*
X139526666Y-53681961D02*
X139431428Y-53777200D01*
X139431428Y-53777200D02*
X139336190Y-53824819D01*
X139336190Y-53824819D02*
X139145714Y-53824819D01*
X139145714Y-53824819D02*
X139050476Y-53777200D01*
X139050476Y-53777200D02*
X138955238Y-53681961D01*
X138955238Y-53681961D02*
X138907619Y-53491485D01*
X138907619Y-53491485D02*
X138907619Y-53158152D01*
X138907619Y-53158152D02*
X138955238Y-52967676D01*
X138955238Y-52967676D02*
X139050476Y-52872438D01*
X139050476Y-52872438D02*
X139145714Y-52824819D01*
X140002857Y-52824819D02*
X140002857Y-53634342D01*
X140002857Y-53634342D02*
X140050476Y-53729580D01*
X140050476Y-53729580D02*
X140098095Y-53777200D01*
X140098095Y-53777200D02*
X140193333Y-53824819D01*
X140193333Y-53824819D02*
X140383809Y-53824819D01*
X140383809Y-53824819D02*
X140479047Y-53777200D01*
X140479047Y-53777200D02*
X140526666Y-53729580D01*
X140526666Y-53729580D02*
X140574285Y-53634342D01*
X140574285Y-53634342D02*
X140574285Y-52824819D01*
X140907619Y-52824819D02*
X141479047Y-52824819D01*
X141193333Y-53824819D02*
X141193333Y-52824819D01*
X135955237Y-70479580D02*
X135907618Y-70527200D01*
X135907618Y-70527200D02*
X135764761Y-70574819D01*
X135764761Y-70574819D02*
X135669523Y-70574819D01*
X135669523Y-70574819D02*
X135526666Y-70527200D01*
X135526666Y-70527200D02*
X135431428Y-70431961D01*
X135431428Y-70431961D02*
X135383809Y-70336723D01*
X135383809Y-70336723D02*
X135336190Y-70146247D01*
X135336190Y-70146247D02*
X135336190Y-70003390D01*
X135336190Y-70003390D02*
X135383809Y-69812914D01*
X135383809Y-69812914D02*
X135431428Y-69717676D01*
X135431428Y-69717676D02*
X135526666Y-69622438D01*
X135526666Y-69622438D02*
X135669523Y-69574819D01*
X135669523Y-69574819D02*
X135764761Y-69574819D01*
X135764761Y-69574819D02*
X135907618Y-69622438D01*
X135907618Y-69622438D02*
X135955237Y-69670057D01*
X136383809Y-69574819D02*
X136383809Y-70384342D01*
X136383809Y-70384342D02*
X136431428Y-70479580D01*
X136431428Y-70479580D02*
X136479047Y-70527200D01*
X136479047Y-70527200D02*
X136574285Y-70574819D01*
X136574285Y-70574819D02*
X136764761Y-70574819D01*
X136764761Y-70574819D02*
X136859999Y-70527200D01*
X136859999Y-70527200D02*
X136907618Y-70479580D01*
X136907618Y-70479580D02*
X136955237Y-70384342D01*
X136955237Y-70384342D02*
X136955237Y-69574819D01*
X137288571Y-69574819D02*
X137859999Y-69574819D01*
X137574285Y-70574819D02*
X137574285Y-69574819D01*
X139145714Y-69574819D02*
X139336190Y-69574819D01*
X139336190Y-69574819D02*
X139431428Y-69622438D01*
X139431428Y-69622438D02*
X139526666Y-69717676D01*
X139526666Y-69717676D02*
X139574285Y-69908152D01*
X139574285Y-69908152D02*
X139574285Y-70241485D01*
X139574285Y-70241485D02*
X139526666Y-70431961D01*
X139526666Y-70431961D02*
X139431428Y-70527200D01*
X139431428Y-70527200D02*
X139336190Y-70574819D01*
X139336190Y-70574819D02*
X139145714Y-70574819D01*
X139145714Y-70574819D02*
X139050476Y-70527200D01*
X139050476Y-70527200D02*
X138955238Y-70431961D01*
X138955238Y-70431961D02*
X138907619Y-70241485D01*
X138907619Y-70241485D02*
X138907619Y-69908152D01*
X138907619Y-69908152D02*
X138955238Y-69717676D01*
X138955238Y-69717676D02*
X139050476Y-69622438D01*
X139050476Y-69622438D02*
X139145714Y-69574819D01*
X140002857Y-69574819D02*
X140002857Y-70384342D01*
X140002857Y-70384342D02*
X140050476Y-70479580D01*
X140050476Y-70479580D02*
X140098095Y-70527200D01*
X140098095Y-70527200D02*
X140193333Y-70574819D01*
X140193333Y-70574819D02*
X140383809Y-70574819D01*
X140383809Y-70574819D02*
X140479047Y-70527200D01*
X140479047Y-70527200D02*
X140526666Y-70479580D01*
X140526666Y-70479580D02*
X140574285Y-70384342D01*
X140574285Y-70384342D02*
X140574285Y-69574819D01*
X140907619Y-69574819D02*
X141479047Y-69574819D01*
X141193333Y-70574819D02*
X141193333Y-69574819D01*
X135955237Y-87229580D02*
X135907618Y-87277200D01*
X135907618Y-87277200D02*
X135764761Y-87324819D01*
X135764761Y-87324819D02*
X135669523Y-87324819D01*
X135669523Y-87324819D02*
X135526666Y-87277200D01*
X135526666Y-87277200D02*
X135431428Y-87181961D01*
X135431428Y-87181961D02*
X135383809Y-87086723D01*
X135383809Y-87086723D02*
X135336190Y-86896247D01*
X135336190Y-86896247D02*
X135336190Y-86753390D01*
X135336190Y-86753390D02*
X135383809Y-86562914D01*
X135383809Y-86562914D02*
X135431428Y-86467676D01*
X135431428Y-86467676D02*
X135526666Y-86372438D01*
X135526666Y-86372438D02*
X135669523Y-86324819D01*
X135669523Y-86324819D02*
X135764761Y-86324819D01*
X135764761Y-86324819D02*
X135907618Y-86372438D01*
X135907618Y-86372438D02*
X135955237Y-86420057D01*
X136383809Y-86324819D02*
X136383809Y-87134342D01*
X136383809Y-87134342D02*
X136431428Y-87229580D01*
X136431428Y-87229580D02*
X136479047Y-87277200D01*
X136479047Y-87277200D02*
X136574285Y-87324819D01*
X136574285Y-87324819D02*
X136764761Y-87324819D01*
X136764761Y-87324819D02*
X136859999Y-87277200D01*
X136859999Y-87277200D02*
X136907618Y-87229580D01*
X136907618Y-87229580D02*
X136955237Y-87134342D01*
X136955237Y-87134342D02*
X136955237Y-86324819D01*
X137288571Y-86324819D02*
X137859999Y-86324819D01*
X137574285Y-87324819D02*
X137574285Y-86324819D01*
X139145714Y-86324819D02*
X139336190Y-86324819D01*
X139336190Y-86324819D02*
X139431428Y-86372438D01*
X139431428Y-86372438D02*
X139526666Y-86467676D01*
X139526666Y-86467676D02*
X139574285Y-86658152D01*
X139574285Y-86658152D02*
X139574285Y-86991485D01*
X139574285Y-86991485D02*
X139526666Y-87181961D01*
X139526666Y-87181961D02*
X139431428Y-87277200D01*
X139431428Y-87277200D02*
X139336190Y-87324819D01*
X139336190Y-87324819D02*
X139145714Y-87324819D01*
X139145714Y-87324819D02*
X139050476Y-87277200D01*
X139050476Y-87277200D02*
X138955238Y-87181961D01*
X138955238Y-87181961D02*
X138907619Y-86991485D01*
X138907619Y-86991485D02*
X138907619Y-86658152D01*
X138907619Y-86658152D02*
X138955238Y-86467676D01*
X138955238Y-86467676D02*
X139050476Y-86372438D01*
X139050476Y-86372438D02*
X139145714Y-86324819D01*
X140002857Y-86324819D02*
X140002857Y-87134342D01*
X140002857Y-87134342D02*
X140050476Y-87229580D01*
X140050476Y-87229580D02*
X140098095Y-87277200D01*
X140098095Y-87277200D02*
X140193333Y-87324819D01*
X140193333Y-87324819D02*
X140383809Y-87324819D01*
X140383809Y-87324819D02*
X140479047Y-87277200D01*
X140479047Y-87277200D02*
X140526666Y-87229580D01*
X140526666Y-87229580D02*
X140574285Y-87134342D01*
X140574285Y-87134342D02*
X140574285Y-86324819D01*
X140907619Y-86324819D02*
X141479047Y-86324819D01*
X141193333Y-87324819D02*
X141193333Y-86324819D01*
M02*
