M48
; DRILL file {KiCad 7.0.7-7.0.7~ubuntu22.04.1} date Sat 16 Sep 2023 04:33:33 PM CDT
; FORMAT={-:-/ absolute / inch / decimal}
; #@! TF.CreationDate,2023-09-16T16:33:33-05:00
; #@! TF.GenerationSoftware,Kicad,Pcbnew,7.0.7-7.0.7~ubuntu22.04.1
; #@! TF.FileFunction,NonPlated,1,4,NPTH
FMAT,2
INCH
; #@! TA.AperFunction,NonPlated,NPTH,ComponentDrill
T1C0.0197
; #@! TA.AperFunction,NonPlated,NPTH,ComponentDrill
T2C0.0787
%
G90
G05
T1
X3.8567Y-3.3748
X3.8575Y-2.7504
X3.8579Y-1.4866
X3.8579Y-2.0953
X3.8869Y-3.3748
X3.8876Y-2.7504
X3.888Y-1.4866
X3.888Y-2.0953
X3.917Y-3.3748
X3.9178Y-2.7504
X3.9182Y-1.4866
X3.9182Y-2.0953
X3.9472Y-3.3748
X3.948Y-2.7504
X3.9483Y-1.4866
X3.9483Y-2.0953
X3.9773Y-3.3748
X3.9781Y-2.7504
X3.9785Y-1.4866
X3.9785Y-2.0953
X4.0075Y-3.3748
X4.0083Y-2.7504
X4.0087Y-1.4866
X4.0087Y-2.0953
X4.136Y-1.6764
X4.136Y-1.7065
X4.136Y-1.7366
X4.136Y-1.7667
X4.136Y-1.7969
X4.136Y-1.827
X4.136Y-1.8571
X4.136Y-2.3358
X4.136Y-2.3659
X4.136Y-2.3961
X4.136Y-2.4262
X4.136Y-2.4563
X4.136Y-2.4864
X4.136Y-2.5165
X4.136Y-2.9953
X4.136Y-3.0254
X4.136Y-3.0555
X4.136Y-3.0856
X4.136Y-3.1157
X4.136Y-3.1459
X4.136Y-3.176
X4.139Y-1.2051
X4.139Y-1.2353
X4.139Y-1.2654
X4.139Y-1.2956
X4.139Y-1.3257
X4.139Y-1.3559
X4.1394Y-3.5047
X4.1394Y-3.5349
X4.1394Y-3.565
X4.1394Y-3.5952
X4.1394Y-3.6254
X4.1394Y-3.6555
X5.3978Y-1.6764
X5.3978Y-1.7065
X5.3978Y-1.7366
X5.3978Y-1.7667
X5.3978Y-1.7969
X5.3978Y-1.827
X5.3978Y-1.8571
X5.3978Y-2.3358
X5.3978Y-2.3659
X5.3978Y-2.3961
X5.3978Y-2.4262
X5.3978Y-2.4563
X5.3978Y-2.4864
X5.3978Y-2.5165
X5.3978Y-2.9953
X5.3978Y-3.0254
X5.3978Y-3.0555
X5.3978Y-3.0856
X5.3978Y-3.1157
X5.3978Y-3.1459
X5.3978Y-3.176
X5.4943Y-1.6764
X5.4943Y-1.7065
X5.4943Y-1.7366
X5.4943Y-1.7667
X5.4943Y-1.7969
X5.4943Y-1.827
X5.4943Y-1.8571
X5.4943Y-2.3358
X5.4943Y-2.3659
X5.4943Y-2.3961
X5.4943Y-2.4262
X5.4943Y-2.4563
X5.4943Y-2.4864
X5.4943Y-2.5165
X5.4943Y-2.9953
X5.4943Y-3.0254
X5.4943Y-3.0555
X5.4943Y-3.0856
X5.4943Y-3.1157
X5.4943Y-3.1459
X5.4943Y-3.176
X6.7524Y-1.2055
X6.7524Y-1.2357
X6.7524Y-1.2658
X6.7524Y-1.296
X6.7524Y-1.3261
X6.7524Y-1.3563
X6.7524Y-3.5071
X6.7524Y-3.5372
X6.7524Y-3.5674
X6.7524Y-3.5976
X6.7524Y-3.6277
X6.7524Y-3.6579
X6.7561Y-1.6764
X6.7561Y-1.7065
X6.7561Y-1.7366
X6.7561Y-1.7667
X6.7561Y-1.7969
X6.7561Y-1.827
X6.7561Y-1.8571
X6.7561Y-2.3358
X6.7561Y-2.3659
X6.7561Y-2.3961
X6.7561Y-2.4262
X6.7561Y-2.4563
X6.7561Y-2.4864
X6.7561Y-2.5165
X6.7561Y-2.9953
X6.7561Y-3.0254
X6.7561Y-3.0555
X6.7561Y-3.0856
X6.7561Y-3.1157
X6.7561Y-3.1459
X6.7561Y-3.176
X6.8839Y-1.4866
X6.8839Y-2.7504
X6.8846Y-3.3752
X6.885Y-2.0953
X6.914Y-1.4866
X6.914Y-2.7504
X6.9148Y-3.3752
X6.9152Y-2.0953
X6.9442Y-1.4866
X6.9442Y-2.7504
X6.945Y-3.3752
X6.9454Y-2.0953
X6.9743Y-1.4866
X6.9743Y-2.7504
X6.9751Y-3.3752
X6.9755Y-2.0953
X7.0045Y-1.4866
X7.0045Y-2.7504
X7.0053Y-3.3752
X7.0057Y-2.0953
X7.0346Y-1.4866
X7.0346Y-2.7504
X7.0354Y-3.3752
X7.0358Y-2.0953
T2
X3.9896Y-3.524
X6.9021Y-1.3366
T0
M30
