M48
; DRILL file {KiCad 7.0.7-7.0.7~ubuntu22.04.1} date Sat 16 Sep 2023 04:33:33 PM CDT
; FORMAT={-:-/ absolute / inch / decimal}
; #@! TF.CreationDate,2023-09-16T16:33:33-05:00
; #@! TF.GenerationSoftware,Kicad,Pcbnew,7.0.7-7.0.7~ubuntu22.04.1
; #@! TF.FileFunction,Plated,1,4,PTH
FMAT,2
INCH
; #@! TA.AperFunction,Plated,PTH,ViaDrill
T1C0.0079
; #@! TA.AperFunction,Plated,PTH,ComponentDrill
T2C0.0157
; #@! TA.AperFunction,Plated,PTH,ComponentDrill
T3C0.0197
%
G90
G05
T1
X4.1677Y-2.0154
X4.1677Y-2.6748
X4.1677Y-3.3343
X4.1709Y-1.5181
X4.1709Y-2.1776
X4.1709Y-2.837
X4.1748Y-1.6173
X4.1748Y-1.9008
X4.1748Y-2.2768
X4.1748Y-2.5602
X4.1748Y-2.9362
X4.1748Y-3.2197
X4.2008Y-1.5839
X4.2008Y-1.926
X4.2008Y-1.976
X4.2008Y-2.2433
X4.2008Y-2.5854
X4.2008Y-2.6354
X4.2008Y-2.9028
X4.2008Y-3.2449
X4.2008Y-3.2949
X4.2235Y-1.6173
X4.2235Y-1.9008
X4.2235Y-2.2768
X4.2235Y-2.5602
X4.2235Y-2.9362
X4.2235Y-3.2197
X4.2295Y-2.0154
X4.2295Y-2.6748
X4.2295Y-3.3343
X4.2469Y-1.5839
X4.2469Y-1.926
X4.2469Y-2.2433
X4.2469Y-2.5854
X4.2469Y-2.9028
X4.2469Y-3.2449
X4.2661Y-1.5134
X4.2661Y-2.1728
X4.2661Y-2.8323
X4.2717Y-1.6173
X4.2717Y-1.9008
X4.2717Y-2.2768
X4.2717Y-2.5602
X4.2717Y-2.9362
X4.2717Y-3.2197
X4.2988Y-1.5689
X4.2988Y-2.2283
X4.2988Y-2.8878
X4.3Y-2.0154
X4.3Y-2.6748
X4.3Y-3.3343
X4.3108Y-1.7096
X4.3108Y-1.7598
X4.3108Y-1.8102
X4.3108Y-2.3691
X4.3108Y-2.4193
X4.3108Y-2.4697
X4.3108Y-3.0285
X4.3108Y-3.0787
X4.3108Y-3.1291
X4.3161Y-1.513
X4.3161Y-2.1724
X4.3161Y-2.8319
X4.3394Y-1.7339
X4.3394Y-2.3933
X4.3394Y-3.0528
X4.3402Y-1.7835
X4.3402Y-2.4429
X4.3402Y-3.1024
X4.3563Y-1.6598
X4.3563Y-2.3193
X4.3563Y-2.9787
X4.3776Y-2.0154
X4.3776Y-2.6748
X4.3776Y-3.3343
X4.3791Y-1.7346
X4.3791Y-2.3941
X4.3791Y-3.0535
X4.3811Y-1.689
X4.3811Y-2.3484
X4.3811Y-3.0079
X4.4004Y-1.5122
X4.4004Y-2.1717
X4.4004Y-2.8311
X4.4071Y-1.9209
X4.4071Y-2.5803
X4.4071Y-3.2398
X4.4157Y-1.7291
X4.4157Y-2.3886
X4.4157Y-3.048
X4.4173Y-1.5689
X4.4173Y-2.2283
X4.4173Y-2.8878
X4.4224Y-1.7772
X4.4224Y-2.4366
X4.4224Y-3.0961
X4.4392Y-1.6331
X4.4392Y-2.2925
X4.4392Y-2.952
X4.4512Y-1.7346
X4.4512Y-2.3941
X4.4512Y-3.0535
X4.4559Y-1.7831
X4.4559Y-2.4425
X4.4559Y-3.102
X4.4571Y-1.5374
X4.4571Y-2.1969
X4.4571Y-2.8563
X4.4815Y-1.8925
X4.4815Y-2.552
X4.4815Y-3.2114
X4.5024Y-1.6776
X4.5024Y-2.337
X4.5024Y-2.9965
X4.5039Y-1.7272
X4.5039Y-2.3866
X4.5039Y-3.0461
X4.5106Y-2.0154
X4.5106Y-2.6748
X4.5106Y-3.3343
X4.5193Y-1.8865
X4.5193Y-2.5459
X4.5193Y-3.2054
X4.535Y-1.5827
X4.535Y-2.2421
X4.535Y-2.9016
X4.5531Y-1.7283
X4.5531Y-2.3878
X4.5531Y-3.0472
X4.5547Y-1.9035
X4.5547Y-2.563
X4.5547Y-3.2224
X4.5563Y-1.7579
X4.5563Y-2.4173
X4.5563Y-3.0768
X4.5724Y-1.5669
X4.5724Y-2.2264
X4.5724Y-2.8858
X4.5748Y-1.8685
X4.5748Y-2.528
X4.5748Y-3.1874
X4.5839Y-1.9555
X4.5839Y-2.615
X4.5839Y-3.2744
X4.5941Y-1.5822
X4.5941Y-1.6917
X4.5941Y-2.2416
X4.5941Y-2.3512
X4.5941Y-2.901
X4.5941Y-3.0106
X4.6075Y-1.7988
X4.6075Y-2.4583
X4.6075Y-3.1177
X4.6382Y-2.0154
X4.6382Y-2.6748
X4.6382Y-3.3343
X4.6522Y-1.6602
X4.6522Y-2.3197
X4.6522Y-2.9791
X4.6709Y-1.5787
X4.6709Y-2.2382
X4.6709Y-2.8976
X4.672Y-1.6689
X4.672Y-2.3283
X4.672Y-2.9878
X4.672Y-1.9555
X4.672Y-2.615
X4.672Y-3.2744
X4.6855Y-1.5278
X4.6855Y-2.1873
X4.6855Y-2.8467
X4.7002Y-1.9175
X4.7002Y-2.577
X4.7002Y-3.2364
X4.7044Y-1.5772
X4.7044Y-2.2366
X4.7044Y-2.8961
X4.7217Y-1.7061
X4.7217Y-2.3656
X4.7217Y-3.025
X4.7333Y-1.5111
X4.7333Y-2.1705
X4.7333Y-2.83
X4.7366Y-1.5685
X4.7366Y-2.228
X4.7366Y-2.8874
X4.7433Y-1.6047
X4.7433Y-2.2642
X4.7433Y-2.9236
X4.7488Y-1.9449
X4.7488Y-2.6043
X4.7488Y-3.2638
X4.776Y-1.7433
X4.776Y-2.4028
X4.776Y-3.0622
X4.7776Y-1.7063
X4.7776Y-2.3657
X4.7776Y-3.0252
X4.7898Y-1.5729
X4.7898Y-2.2324
X4.7898Y-2.8918
X4.7941Y-1.8929
X4.7941Y-2.5524
X4.7941Y-3.2118
X4.8012Y-2.0154
X4.8012Y-2.6748
X4.8012Y-3.3343
X4.8071Y-1.6685
X4.8071Y-2.328
X4.8071Y-2.9874
X4.8232Y-1.876
X4.8232Y-2.5354
X4.8232Y-3.1949
X4.8331Y-1.7846
X4.8331Y-2.4441
X4.8331Y-3.1035
X4.835Y-1.5732
X4.835Y-2.2327
X4.835Y-2.8921
X4.8366Y-1.7059
X4.8366Y-2.3654
X4.8366Y-3.0248
X4.85Y-1.6886
X4.85Y-2.348
X4.85Y-3.0075
X4.8567Y-1.5858
X4.8567Y-2.2453
X4.8567Y-2.9047
X4.9008Y-1.8776
X4.9008Y-2.537
X4.9008Y-3.1965
X4.922Y-2.0154
X4.922Y-2.6748
X4.922Y-3.3343
X4.9244Y-1.7854
X4.9244Y-2.4449
X4.9244Y-3.1043
X4.9252Y-1.5734
X4.9252Y-2.2329
X4.9252Y-2.8923
X4.9352Y-1.9568
X4.9352Y-2.6162
X4.9352Y-3.2757
X4.9421Y-1.8226
X4.9421Y-2.4821
X4.9421Y-3.1415
X4.9526Y-1.6835
X4.9526Y-2.3429
X4.9526Y-3.0024
X4.9646Y-1.578
X4.9646Y-2.2374
X4.9646Y-2.8969
X4.9689Y-1.5217
X4.9689Y-2.1811
X4.9689Y-2.8406
X4.9718Y-2.0073
X4.9718Y-2.6667
X4.9718Y-3.3262
X4.9752Y-1.8512
X4.9752Y-2.5106
X4.9752Y-3.1701
X4.9772Y-1.8866
X4.9772Y-2.5461
X4.9772Y-3.2055
X4.9868Y-1.6327
X4.9868Y-2.2921
X4.9868Y-2.9516
X4.9886Y-1.8118
X4.9886Y-2.4713
X4.9886Y-3.1307
X4.9945Y-1.6969
X4.9945Y-2.3563
X4.9945Y-3.0157
X4.9976Y-1.9608
X4.9976Y-2.6203
X4.9976Y-3.2797
X5.0055Y-1.5969
X5.0055Y-2.2563
X5.0055Y-2.9158
X5.011Y-1.9303
X5.011Y-2.5898
X5.011Y-3.2492
X5.022Y-1.8516
X5.022Y-2.511
X5.022Y-3.1705
X5.0224Y-1.8854
X5.0224Y-2.5449
X5.0224Y-3.2043
X5.0407Y-1.7762
X5.0407Y-2.4356
X5.0407Y-3.0951
X5.0433Y-1.5776
X5.0433Y-2.237
X5.0433Y-2.8965
X5.0524Y-1.9902
X5.0524Y-2.6496
X5.0524Y-3.3091
X5.0657Y-1.5217
X5.0657Y-1.6969
X5.0657Y-2.1811
X5.0657Y-2.3563
X5.0657Y-2.8406
X5.0657Y-3.0157
X5.0795Y-1.872
X5.0795Y-2.5315
X5.0795Y-3.1909
X5.0945Y-1.9654
X5.0945Y-2.6248
X5.0945Y-3.2843
X5.1Y-1.7039
X5.1Y-2.3634
X5.1Y-3.0228
X5.1075Y-1.5118
X5.1075Y-2.1713
X5.1075Y-2.8307
X5.135Y-1.7394
X5.135Y-2.3988
X5.135Y-3.0583
X5.1366Y-1.5921
X5.1366Y-2.2516
X5.1366Y-2.911
X5.1378Y-1.5559
X5.1378Y-2.2154
X5.1378Y-2.8748
X5.1457Y-1.7713
X5.1457Y-2.4307
X5.1457Y-3.0902
X5.1463Y-1.7958
X5.1463Y-2.4553
X5.1463Y-3.1147
X5.1504Y-1.9528
X5.1504Y-2.6122
X5.1504Y-3.2717
X5.1547Y-1.7059
X5.1547Y-2.3654
X5.1547Y-3.0248
X5.1551Y-1.6315
X5.1551Y-2.2909
X5.1551Y-2.9504
X5.1673Y-1.8343
X5.1673Y-2.4937
X5.1673Y-3.1531
X5.1689Y-1.6122
X5.1689Y-2.2717
X5.1689Y-2.9311
X5.1772Y-1.5559
X5.1772Y-2.2154
X5.1772Y-2.8748
X5.1933Y-2.0154
X5.1933Y-2.6748
X5.1933Y-3.3343
X5.2098Y-1.6815
X5.2098Y-2.3409
X5.2098Y-3.0004
X5.2122Y-1.5807
X5.2122Y-2.2402
X5.2122Y-2.8996
X5.2787Y-1.5118
X5.2787Y-1.6524
X5.2787Y-1.7614
X5.2787Y-2.0154
X5.2787Y-2.1713
X5.2787Y-2.3118
X5.2787Y-2.4209
X5.2787Y-2.6748
X5.2787Y-2.8307
X5.2787Y-2.9713
X5.2787Y-3.0803
X5.2787Y-3.3343
X5.365Y-1.8169
X5.365Y-2.4764
X5.365Y-3.1358
X5.3661Y-1.5118
X5.3661Y-1.6091
X5.3661Y-1.7063
X5.3661Y-2.0138
X5.3661Y-2.1713
X5.3661Y-2.2685
X5.3661Y-2.3657
X5.3661Y-2.6732
X5.3661Y-2.8307
X5.3661Y-2.928
X5.3661Y-3.0252
X5.3661Y-3.3327
X5.526Y-2.0154
X5.526Y-2.6748
X5.526Y-3.3343
X5.5291Y-1.5181
X5.5291Y-2.1776
X5.5291Y-2.837
X5.5331Y-1.6173
X5.5331Y-1.9008
X5.5331Y-2.2768
X5.5331Y-2.5602
X5.5331Y-2.9362
X5.5331Y-3.2197
X5.5591Y-1.5839
X5.5591Y-1.926
X5.5591Y-1.976
X5.5591Y-2.2433
X5.5591Y-2.5854
X5.5591Y-2.6354
X5.5591Y-2.9028
X5.5591Y-3.2449
X5.5591Y-3.2949
X5.5818Y-1.6173
X5.5818Y-1.9008
X5.5818Y-2.2768
X5.5818Y-2.5602
X5.5818Y-2.9362
X5.5818Y-3.2197
X5.5878Y-2.0154
X5.5878Y-2.6748
X5.5878Y-3.3343
X5.6051Y-1.5839
X5.6051Y-1.926
X5.6051Y-2.2433
X5.6051Y-2.5854
X5.6051Y-2.9028
X5.6051Y-3.2449
X5.6244Y-1.5134
X5.6244Y-2.1728
X5.6244Y-2.8323
X5.6299Y-1.6173
X5.6299Y-1.9008
X5.6299Y-2.2768
X5.6299Y-2.5602
X5.6299Y-2.9362
X5.6299Y-3.2197
X5.6571Y-1.5689
X5.6571Y-2.2283
X5.6571Y-2.8878
X5.6583Y-2.0154
X5.6583Y-2.6748
X5.6583Y-3.3343
X5.6691Y-1.7096
X5.6691Y-1.7598
X5.6691Y-1.8102
X5.6691Y-2.3691
X5.6691Y-2.4193
X5.6691Y-2.4697
X5.6691Y-3.0285
X5.6691Y-3.0787
X5.6691Y-3.1291
X5.6744Y-1.513
X5.6744Y-2.1724
X5.6744Y-2.8319
X5.6976Y-1.7339
X5.6976Y-2.3933
X5.6976Y-3.0528
X5.6984Y-1.7835
X5.6984Y-2.4429
X5.6984Y-3.1024
X5.7146Y-1.6598
X5.7146Y-2.3193
X5.7146Y-2.9787
X5.7358Y-2.0154
X5.7358Y-2.6748
X5.7358Y-3.3343
X5.7374Y-1.7346
X5.7374Y-2.3941
X5.7374Y-3.0535
X5.7394Y-1.689
X5.7394Y-2.3484
X5.7394Y-3.0079
X5.7587Y-1.5122
X5.7587Y-2.1717
X5.7587Y-2.8311
X5.7654Y-1.9209
X5.7654Y-2.5803
X5.7654Y-3.2398
X5.774Y-1.7291
X5.774Y-2.3886
X5.774Y-3.048
X5.7756Y-1.5689
X5.7756Y-2.2283
X5.7756Y-2.8878
X5.7807Y-1.7772
X5.7807Y-2.4366
X5.7807Y-3.0961
X5.7974Y-1.6331
X5.7974Y-2.2925
X5.7974Y-2.952
X5.8094Y-1.7346
X5.8094Y-2.3941
X5.8094Y-3.0535
X5.8142Y-1.7831
X5.8142Y-2.4425
X5.8142Y-3.102
X5.8154Y-1.5374
X5.8154Y-2.1969
X5.8154Y-2.8563
X5.8398Y-1.8925
X5.8398Y-2.552
X5.8398Y-3.2114
X5.8606Y-1.6776
X5.8606Y-2.337
X5.8606Y-2.9965
X5.8622Y-1.7272
X5.8622Y-2.3866
X5.8622Y-3.0461
X5.8689Y-2.0154
X5.8689Y-2.6748
X5.8689Y-3.3343
X5.8775Y-1.8865
X5.8775Y-2.5459
X5.8775Y-3.2054
X5.8933Y-1.5827
X5.8933Y-2.2421
X5.8933Y-2.9016
X5.9114Y-1.7283
X5.9114Y-2.3878
X5.9114Y-3.0472
X5.913Y-1.9035
X5.913Y-2.563
X5.913Y-3.2224
X5.9146Y-1.7579
X5.9146Y-2.4173
X5.9146Y-3.0768
X5.9307Y-1.5669
X5.9307Y-2.2264
X5.9307Y-2.8858
X5.9331Y-1.8685
X5.9331Y-2.528
X5.9331Y-3.1874
X5.9421Y-1.9555
X5.9421Y-2.615
X5.9421Y-3.2744
X5.9524Y-1.5822
X5.9524Y-1.6917
X5.9524Y-2.2416
X5.9524Y-2.3512
X5.9524Y-2.901
X5.9524Y-3.0106
X5.9657Y-1.7988
X5.9657Y-2.4583
X5.9657Y-3.1177
X5.9965Y-2.0154
X5.9965Y-2.6748
X5.9965Y-3.3343
X6.0104Y-1.6602
X6.0104Y-2.3197
X6.0104Y-2.9791
X6.0291Y-1.5787
X6.0291Y-2.2382
X6.0291Y-2.8976
X6.0303Y-1.6689
X6.0303Y-2.3283
X6.0303Y-2.9878
X6.0303Y-1.9555
X6.0303Y-2.615
X6.0303Y-3.2744
X6.0437Y-1.5278
X6.0437Y-2.1873
X6.0437Y-2.8467
X6.0585Y-1.9175
X6.0585Y-2.577
X6.0585Y-3.2364
X6.0627Y-1.5772
X6.0627Y-2.2366
X6.0627Y-2.8961
X6.0799Y-1.7061
X6.0799Y-2.3656
X6.0799Y-3.025
X6.0916Y-1.5111
X6.0916Y-2.1705
X6.0916Y-2.83
X6.0949Y-1.5685
X6.0949Y-2.228
X6.0949Y-2.8874
X6.1016Y-1.6047
X6.1016Y-2.2642
X6.1016Y-2.9236
X6.1071Y-1.9449
X6.1071Y-2.6043
X6.1071Y-3.2638
X6.1343Y-1.7433
X6.1343Y-2.4028
X6.1343Y-3.0622
X6.1358Y-1.7063
X6.1358Y-2.3657
X6.1358Y-3.0252
X6.148Y-1.5729
X6.148Y-2.2324
X6.148Y-2.8918
X6.1524Y-1.8929
X6.1524Y-2.5524
X6.1524Y-3.2118
X6.1594Y-2.0154
X6.1594Y-2.6748
X6.1594Y-3.3343
X6.1654Y-1.6685
X6.1654Y-2.328
X6.1654Y-2.9874
X6.1815Y-1.876
X6.1815Y-2.5354
X6.1815Y-3.1949
X6.1913Y-1.7846
X6.1913Y-2.4441
X6.1913Y-3.1035
X6.1933Y-1.5732
X6.1933Y-2.2327
X6.1933Y-2.8921
X6.1949Y-1.7059
X6.1949Y-2.3654
X6.1949Y-3.0248
X6.2083Y-1.6886
X6.2083Y-2.348
X6.2083Y-3.0075
X6.215Y-1.5858
X6.215Y-2.2453
X6.215Y-2.9047
X6.2591Y-1.8776
X6.2591Y-2.537
X6.2591Y-3.1965
X6.2803Y-2.0154
X6.2803Y-2.6748
X6.2803Y-3.3343
X6.2827Y-1.7854
X6.2827Y-2.4449
X6.2827Y-3.1043
X6.2835Y-1.5734
X6.2835Y-2.2329
X6.2835Y-2.8923
X6.2934Y-1.9568
X6.2934Y-2.6162
X6.2934Y-3.2757
X6.3004Y-1.8226
X6.3004Y-2.4821
X6.3004Y-3.1415
X6.3108Y-1.6835
X6.3108Y-2.3429
X6.3108Y-3.0024
X6.3228Y-1.578
X6.3228Y-2.2374
X6.3228Y-2.8969
X6.3272Y-1.5217
X6.3272Y-2.1811
X6.3272Y-2.8406
X6.33Y-2.0073
X6.33Y-2.6667
X6.33Y-3.3262
X6.3335Y-1.8512
X6.3335Y-2.5106
X6.3335Y-3.1701
X6.3354Y-1.8866
X6.3354Y-2.5461
X6.3354Y-3.2055
X6.3451Y-1.6327
X6.3451Y-2.2921
X6.3451Y-2.9516
X6.3468Y-1.8118
X6.3468Y-2.4713
X6.3468Y-3.1307
X6.3528Y-1.6969
X6.3528Y-2.3563
X6.3528Y-3.0157
X6.3559Y-1.9608
X6.3559Y-2.6203
X6.3559Y-3.2797
X6.3638Y-1.5969
X6.3638Y-2.2563
X6.3638Y-2.9158
X6.3693Y-1.9303
X6.3693Y-2.5898
X6.3693Y-3.2492
X6.3803Y-1.8516
X6.3803Y-2.511
X6.3803Y-3.1705
X6.3807Y-1.8854
X6.3807Y-2.5449
X6.3807Y-3.2043
X6.399Y-1.7762
X6.399Y-2.4356
X6.399Y-3.0951
X6.4016Y-1.5776
X6.4016Y-2.237
X6.4016Y-2.8965
X6.4106Y-1.9902
X6.4106Y-2.6496
X6.4106Y-3.3091
X6.424Y-1.5217
X6.424Y-1.6969
X6.424Y-2.1811
X6.424Y-2.3563
X6.424Y-2.8406
X6.424Y-3.0157
X6.4378Y-1.872
X6.4378Y-2.5315
X6.4378Y-3.1909
X6.4528Y-1.9654
X6.4528Y-2.6248
X6.4528Y-3.2843
X6.4583Y-1.7039
X6.4583Y-2.3634
X6.4583Y-3.0228
X6.4657Y-1.5118
X6.4657Y-2.1713
X6.4657Y-2.8307
X6.4933Y-1.7394
X6.4933Y-2.3988
X6.4933Y-3.0583
X6.4949Y-1.5921
X6.4949Y-2.2516
X6.4949Y-2.911
X6.4961Y-1.5559
X6.4961Y-2.2154
X6.4961Y-2.8748
X6.5039Y-1.7713
X6.5039Y-2.4307
X6.5039Y-3.0902
X6.5045Y-1.7958
X6.5045Y-2.4553
X6.5045Y-3.1147
X6.5087Y-1.9528
X6.5087Y-2.6122
X6.5087Y-3.2717
X6.513Y-1.7059
X6.513Y-2.3654
X6.513Y-3.0248
X6.5134Y-1.6315
X6.5134Y-2.2909
X6.5134Y-2.9504
X6.5256Y-1.8343
X6.5256Y-2.4937
X6.5256Y-3.1531
X6.5272Y-1.6122
X6.5272Y-2.2717
X6.5272Y-2.9311
X6.5354Y-1.5559
X6.5354Y-2.2154
X6.5354Y-2.8748
X6.5516Y-2.0154
X6.5516Y-2.6748
X6.5516Y-3.3343
X6.5681Y-1.6815
X6.5681Y-2.3409
X6.5681Y-3.0004
X6.5705Y-1.5807
X6.5705Y-2.2402
X6.5705Y-2.8996
X6.637Y-1.5118
X6.637Y-1.6524
X6.637Y-1.7614
X6.637Y-2.0154
X6.637Y-2.1713
X6.637Y-2.3118
X6.637Y-2.4209
X6.637Y-2.6748
X6.637Y-2.8307
X6.637Y-2.9713
X6.637Y-3.0803
X6.637Y-3.3343
X6.7232Y-1.8169
X6.7232Y-2.4764
X6.7232Y-3.1358
X6.7244Y-1.5118
X6.7244Y-1.6091
X6.7244Y-1.7063
X6.7244Y-2.0138
X6.7244Y-2.1713
X6.7244Y-2.2685
X6.7244Y-2.3657
X6.7244Y-2.6732
X6.7244Y-2.8307
X6.7244Y-2.928
X6.7244Y-3.0252
X6.7244Y-3.3327
T3
X4.261Y-1.9843
X4.261Y-2.6437
X4.261Y-3.3031
X4.3004Y-1.9843
X4.3004Y-2.6437
X4.3004Y-3.3031
X4.3398Y-1.9843
X4.3398Y-2.6437
X4.3398Y-3.3031
X4.3791Y-1.9843
X4.3791Y-2.6437
X4.3791Y-3.3031
X4.4185Y-1.9843
X4.4185Y-2.6437
X4.4185Y-3.3031
X5.6193Y-1.9843
X5.6193Y-2.6437
X5.6193Y-3.3031
X5.6587Y-1.9843
X5.6587Y-2.6437
X5.6587Y-3.3031
X5.698Y-1.9843
X5.698Y-2.6437
X5.698Y-3.3031
X5.7374Y-1.9843
X5.7374Y-2.6437
X5.7374Y-3.3031
X5.7768Y-1.9843
X5.7768Y-2.6437
X5.7768Y-3.3031
T2
G00X5.1837Y-1.9254
M15
G01X5.1837Y-1.9352
M16
G05
G00X5.1837Y-2.5848
M15
G01X5.1837Y-2.5947
M16
G05
G00X5.1837Y-3.2443
M15
G01X5.1837Y-3.2541
M16
G05
G00X5.3431Y-1.9254
M15
G01X5.3431Y-1.9352
M16
G05
G00X5.3431Y-2.5848
M15
G01X5.3431Y-2.5947
M16
G05
G00X5.3431Y-3.2443
M15
G01X5.3431Y-3.2541
M16
G05
G00X6.5419Y-1.9254
M15
G01X6.5419Y-1.9352
M16
G05
G00X6.5419Y-2.5848
M15
G01X6.5419Y-2.5947
M16
G05
G00X6.5419Y-3.2443
M15
G01X6.5419Y-3.2541
M16
G05
G00X6.7014Y-1.9254
M15
G01X6.7014Y-1.9352
M16
G05
G00X6.7014Y-2.5848
M15
G01X6.7014Y-2.5947
M16
G05
G00X6.7014Y-3.2443
M15
G01X6.7014Y-3.2541
M16
G05
T3
G00X4.5453Y-1.8165
M15
G01X4.5453Y-1.8441
M16
G05
G00X4.5453Y-1.9661
M15
G01X4.5453Y-1.9937
M16
G05
G00X4.5453Y-2.476
M15
G01X4.5453Y-2.5035
M16
G05
G00X4.5453Y-2.6256
M15
G01X4.5453Y-2.6531
M16
G05
G00X4.5453Y-3.1354
M15
G01X4.5453Y-3.163
M16
G05
G00X4.5453Y-3.285
M15
G01X4.5453Y-3.3126
M16
G05
G00X4.8854Y-1.8165
M15
G01X4.8854Y-1.8441
M16
G05
G00X4.8854Y-1.9661
M15
G01X4.8854Y-1.9937
M16
G05
G00X4.8854Y-2.476
M15
G01X4.8854Y-2.5035
M16
G05
G00X4.8854Y-2.6256
M15
G01X4.8854Y-2.6531
M16
G05
G00X4.8854Y-3.1354
M15
G01X4.8854Y-3.163
M16
G05
G00X4.8854Y-3.285
M15
G01X4.8854Y-3.3126
M16
G05
G00X5.9035Y-1.8165
M15
G01X5.9035Y-1.8441
M16
G05
G00X5.9035Y-1.9661
M15
G01X5.9035Y-1.9937
M16
G05
G00X5.9035Y-2.476
M15
G01X5.9035Y-2.5035
M16
G05
G00X5.9035Y-2.6256
M15
G01X5.9035Y-2.6531
M16
G05
G00X5.9035Y-3.1354
M15
G01X5.9035Y-3.163
M16
G05
G00X5.9035Y-3.285
M15
G01X5.9035Y-3.3126
M16
G05
G00X6.2437Y-1.8165
M15
G01X6.2437Y-1.8441
M16
G05
G00X6.2437Y-1.9661
M15
G01X6.2437Y-1.9937
M16
G05
G00X6.2437Y-2.476
M15
G01X6.2437Y-2.5035
M16
G05
G00X6.2437Y-2.6256
M15
G01X6.2437Y-2.6531
M16
G05
G00X6.2437Y-3.1354
M15
G01X6.2437Y-3.163
M16
G05
G00X6.2437Y-3.285
M15
G01X6.2437Y-3.3126
M16
G05
T0
M30
