%TF.GenerationSoftware,KiCad,Pcbnew,7.0.9-7.0.9~ubuntu22.04.1*%
%TF.CreationDate,2023-11-19T15:44:39-06:00*%
%TF.ProjectId,BT_PANELIZED,42545f50-414e-4454-9c49-5a45442e6b69,000*%
%TF.SameCoordinates,Original*%
%TF.FileFunction,Legend,Top*%
%TF.FilePolarity,Positive*%
%FSLAX46Y46*%
G04 Gerber Fmt 4.6, Leading zero omitted, Abs format (unit mm)*
G04 Created by KiCad (PCBNEW 7.0.9-7.0.9~ubuntu22.04.1) date 2023-11-19 15:44:39*
%MOMM*%
%LPD*%
G01*
G04 APERTURE LIST*
%ADD10C,0.200000*%
%ADD11C,0.127000*%
%ADD12C,0.120000*%
%ADD13C,0.250000*%
%ADD14C,0.152400*%
%ADD15C,0.100000*%
G04 APERTURE END LIST*
D10*
%TO.C,U4*%
X141230000Y-81800000D02*
G75*
G03*
X141230000Y-81800000I-100000J0D01*
G01*
X106730000Y-65050000D02*
G75*
G03*
X106730000Y-65050000I-100000J0D01*
G01*
D11*
%TO.C,D2*%
X163975000Y-50237000D02*
X163975000Y-51057000D01*
X163155000Y-50237000D02*
X163155000Y-51057000D01*
D12*
X164031569Y-49727000D02*
G75*
G03*
X164031569Y-49727000I-56569J0D01*
G01*
D13*
%TO.C,U3*%
X114840000Y-59850000D02*
G75*
G03*
X114840000Y-59850000I0J0D01*
G01*
D11*
%TO.C,D3*%
X127325000Y-66987000D02*
X127325000Y-67807000D01*
X126505000Y-66987000D02*
X126505000Y-67807000D01*
D12*
X127381569Y-66477000D02*
G75*
G03*
X127381569Y-66477000I-56569J0D01*
G01*
D11*
X127325000Y-83737000D02*
X127325000Y-84557000D01*
X126505000Y-83737000D02*
X126505000Y-84557000D01*
D12*
X127381569Y-83227000D02*
G75*
G03*
X127381569Y-83227000I-56569J0D01*
G01*
D10*
%TO.C,U1*%
X120620000Y-74015000D02*
G75*
G03*
X120620000Y-74015000I-100000J0D01*
G01*
D11*
%TO.C,D2*%
X163975000Y-66987000D02*
X163975000Y-67807000D01*
X163155000Y-66987000D02*
X163155000Y-67807000D01*
D12*
X164031569Y-66477000D02*
G75*
G03*
X164031569Y-66477000I-56569J0D01*
G01*
%TO.C,U7*%
X127863137Y-73630000D02*
G75*
G03*
X127863137Y-73630000I-56569J0D01*
G01*
D13*
%TO.C,U3*%
X149340000Y-76600000D02*
G75*
G03*
X149340000Y-76600000I0J0D01*
G01*
D14*
%TO.C,CR1*%
X158376200Y-62050000D02*
G75*
G03*
X158376200Y-62050000I-76200J0D01*
G01*
X158376200Y-45300000D02*
G75*
G03*
X158376200Y-45300000I-76200J0D01*
G01*
D11*
%TO.C,D2*%
X129475000Y-83737000D02*
X129475000Y-84557000D01*
X128655000Y-83737000D02*
X128655000Y-84557000D01*
D12*
X129531569Y-83227000D02*
G75*
G03*
X129531569Y-83227000I-56569J0D01*
G01*
D10*
%TO.C,J2*%
X163015000Y-73005000D02*
G75*
G03*
X163015000Y-73005000I-100000J0D01*
G01*
%TO.C,U1*%
X120620000Y-57265000D02*
G75*
G03*
X120620000Y-57265000I-100000J0D01*
G01*
%TO.C,J2*%
X128515000Y-39505000D02*
G75*
G03*
X128515000Y-39505000I-100000J0D01*
G01*
D13*
%TO.C,U2*%
X162985000Y-62360000D02*
G75*
G03*
X162985000Y-62360000I-125000J0D01*
G01*
D12*
%TO.C,U6*%
X159843137Y-73630000D02*
G75*
G03*
X159843137Y-73630000I-56569J0D01*
G01*
D15*
%TO.C,Y1*%
X112230000Y-72560000D02*
G75*
G03*
X112230000Y-72560000I-50000J0D01*
G01*
X112308062Y-72560000D02*
G75*
G03*
X112308062Y-72560000I-128062J0D01*
G01*
D14*
%TO.C,CR1*%
X123876200Y-45300000D02*
G75*
G03*
X123876200Y-45300000I-76200J0D01*
G01*
D12*
%TO.C,U7*%
X162363137Y-40130000D02*
G75*
G03*
X162363137Y-40130000I-56569J0D01*
G01*
D11*
%TO.C,D3*%
X161825000Y-50237000D02*
X161825000Y-51057000D01*
X161005000Y-50237000D02*
X161005000Y-51057000D01*
D12*
X161881569Y-49727000D02*
G75*
G03*
X161881569Y-49727000I-56569J0D01*
G01*
D15*
%TO.C,Y1*%
X146730000Y-39060000D02*
G75*
G03*
X146730000Y-39060000I-50000J0D01*
G01*
X146808062Y-39060000D02*
G75*
G03*
X146808062Y-39060000I-128062J0D01*
G01*
X146730000Y-55810000D02*
G75*
G03*
X146730000Y-55810000I-50000J0D01*
G01*
X146808062Y-55810000D02*
G75*
G03*
X146808062Y-55810000I-128062J0D01*
G01*
D12*
%TO.C,U7*%
X127863137Y-40130000D02*
G75*
G03*
X127863137Y-40130000I-56569J0D01*
G01*
D10*
%TO.C,U4*%
X106730000Y-48300000D02*
G75*
G03*
X106730000Y-48300000I-100000J0D01*
G01*
X141230000Y-48300000D02*
G75*
G03*
X141230000Y-48300000I-100000J0D01*
G01*
%TO.C,U1*%
X155120000Y-57265000D02*
G75*
G03*
X155120000Y-57265000I-100000J0D01*
G01*
D12*
%TO.C,U5*%
X122823137Y-56880000D02*
G75*
G03*
X122823137Y-56880000I-56569J0D01*
G01*
D11*
%TO.C,D2*%
X129475000Y-66987000D02*
X129475000Y-67807000D01*
X128655000Y-66987000D02*
X128655000Y-67807000D01*
D12*
X129531569Y-66477000D02*
G75*
G03*
X129531569Y-66477000I-56569J0D01*
G01*
D10*
%TO.C,D1*%
X121440000Y-61510000D02*
X121440000Y-60310000D01*
X122240000Y-61510000D02*
X122240000Y-60310000D01*
D12*
X121450828Y-59840000D02*
G75*
G03*
X121450828Y-59840000I-60828J0D01*
G01*
D10*
%TO.C,J2*%
X163015000Y-56255000D02*
G75*
G03*
X163015000Y-56255000I-100000J0D01*
G01*
D12*
%TO.C,U6*%
X125343137Y-73630000D02*
G75*
G03*
X125343137Y-73630000I-56569J0D01*
G01*
D13*
%TO.C,U2*%
X162985000Y-45610000D02*
G75*
G03*
X162985000Y-45610000I-125000J0D01*
G01*
%TO.C,U3*%
X114840000Y-76600000D02*
G75*
G03*
X114840000Y-76600000I0J0D01*
G01*
X149340000Y-43100000D02*
G75*
G03*
X149340000Y-43100000I0J0D01*
G01*
D10*
%TO.C,D1*%
X155940000Y-61510000D02*
X155940000Y-60310000D01*
X156740000Y-61510000D02*
X156740000Y-60310000D01*
D12*
X155950828Y-59840000D02*
G75*
G03*
X155950828Y-59840000I-60828J0D01*
G01*
D10*
%TO.C,U4*%
X141230000Y-65050000D02*
G75*
G03*
X141230000Y-65050000I-100000J0D01*
G01*
D15*
%TO.C,Y1*%
X112230000Y-55810000D02*
G75*
G03*
X112230000Y-55810000I-50000J0D01*
G01*
X112308062Y-55810000D02*
G75*
G03*
X112308062Y-55810000I-128062J0D01*
G01*
D14*
%TO.C,CR1*%
X158376200Y-78800000D02*
G75*
G03*
X158376200Y-78800000I-76200J0D01*
G01*
D11*
%TO.C,D3*%
X161825000Y-66987000D02*
X161825000Y-67807000D01*
X161005000Y-66987000D02*
X161005000Y-67807000D01*
D12*
X161881569Y-66477000D02*
G75*
G03*
X161881569Y-66477000I-56569J0D01*
G01*
D14*
%TO.C,CR1*%
X123876200Y-62050000D02*
G75*
G03*
X123876200Y-62050000I-76200J0D01*
G01*
D13*
%TO.C,U2*%
X128485000Y-79110000D02*
G75*
G03*
X128485000Y-79110000I-125000J0D01*
G01*
D10*
%TO.C,U1*%
X155120000Y-40515000D02*
G75*
G03*
X155120000Y-40515000I-100000J0D01*
G01*
D15*
%TO.C,Y1*%
X112230000Y-39060000D02*
G75*
G03*
X112230000Y-39060000I-50000J0D01*
G01*
X112308062Y-39060000D02*
G75*
G03*
X112308062Y-39060000I-128062J0D01*
G01*
D10*
%TO.C,J2*%
X163015000Y-39505000D02*
G75*
G03*
X163015000Y-39505000I-100000J0D01*
G01*
%TO.C,D1*%
X121440000Y-78260000D02*
X121440000Y-77060000D01*
X122240000Y-78260000D02*
X122240000Y-77060000D01*
D12*
X121450828Y-76590000D02*
G75*
G03*
X121450828Y-76590000I-60828J0D01*
G01*
D10*
X121440000Y-44760000D02*
X121440000Y-43560000D01*
X122240000Y-44760000D02*
X122240000Y-43560000D01*
D12*
X121450828Y-43090000D02*
G75*
G03*
X121450828Y-43090000I-60828J0D01*
G01*
%TO.C,U5*%
X157323137Y-40130000D02*
G75*
G03*
X157323137Y-40130000I-56569J0D01*
G01*
D11*
%TO.C,D2*%
X129475000Y-50237000D02*
X129475000Y-51057000D01*
X128655000Y-50237000D02*
X128655000Y-51057000D01*
D12*
X129531569Y-49727000D02*
G75*
G03*
X129531569Y-49727000I-56569J0D01*
G01*
%TO.C,U6*%
X125343137Y-56880000D02*
G75*
G03*
X125343137Y-56880000I-56569J0D01*
G01*
D10*
%TO.C,J2*%
X128515000Y-56255000D02*
G75*
G03*
X128515000Y-56255000I-100000J0D01*
G01*
D11*
%TO.C,D2*%
X163975000Y-83737000D02*
X163975000Y-84557000D01*
X163155000Y-83737000D02*
X163155000Y-84557000D01*
D12*
X164031569Y-83227000D02*
G75*
G03*
X164031569Y-83227000I-56569J0D01*
G01*
D13*
%TO.C,U2*%
X128485000Y-45610000D02*
G75*
G03*
X128485000Y-45610000I-125000J0D01*
G01*
D10*
%TO.C,U4*%
X106730000Y-81800000D02*
G75*
G03*
X106730000Y-81800000I-100000J0D01*
G01*
D12*
%TO.C,U7*%
X162363137Y-56880000D02*
G75*
G03*
X162363137Y-56880000I-56569J0D01*
G01*
%TO.C,U6*%
X159843137Y-40130000D02*
G75*
G03*
X159843137Y-40130000I-56569J0D01*
G01*
D13*
%TO.C,U2*%
X162985000Y-79110000D02*
G75*
G03*
X162985000Y-79110000I-125000J0D01*
G01*
D10*
%TO.C,J2*%
X128515000Y-73005000D02*
G75*
G03*
X128515000Y-73005000I-100000J0D01*
G01*
D15*
%TO.C,Y1*%
X146730000Y-72560000D02*
G75*
G03*
X146730000Y-72560000I-50000J0D01*
G01*
X146808062Y-72560000D02*
G75*
G03*
X146808062Y-72560000I-128062J0D01*
G01*
D11*
%TO.C,D3*%
X127325000Y-50237000D02*
X127325000Y-51057000D01*
X126505000Y-50237000D02*
X126505000Y-51057000D01*
D12*
X127381569Y-49727000D02*
G75*
G03*
X127381569Y-49727000I-56569J0D01*
G01*
D13*
%TO.C,U3*%
X149340000Y-59850000D02*
G75*
G03*
X149340000Y-59850000I0J0D01*
G01*
D12*
%TO.C,U7*%
X162363137Y-73630000D02*
G75*
G03*
X162363137Y-73630000I-56569J0D01*
G01*
D10*
%TO.C,D1*%
X155940000Y-44760000D02*
X155940000Y-43560000D01*
X156740000Y-44760000D02*
X156740000Y-43560000D01*
D12*
X155950828Y-43090000D02*
G75*
G03*
X155950828Y-43090000I-60828J0D01*
G01*
%TO.C,U5*%
X157323137Y-73630000D02*
G75*
G03*
X157323137Y-73630000I-56569J0D01*
G01*
D10*
%TO.C,D1*%
X155940000Y-78260000D02*
X155940000Y-77060000D01*
X156740000Y-78260000D02*
X156740000Y-77060000D01*
D12*
X155950828Y-76590000D02*
G75*
G03*
X155950828Y-76590000I-60828J0D01*
G01*
%TO.C,U7*%
X127863137Y-56880000D02*
G75*
G03*
X127863137Y-56880000I-56569J0D01*
G01*
%TO.C,U5*%
X122823137Y-40130000D02*
G75*
G03*
X122823137Y-40130000I-56569J0D01*
G01*
D11*
%TO.C,D3*%
X161825000Y-83737000D02*
X161825000Y-84557000D01*
X161005000Y-83737000D02*
X161005000Y-84557000D01*
D12*
X161881569Y-83227000D02*
G75*
G03*
X161881569Y-83227000I-56569J0D01*
G01*
%TO.C,U6*%
X159843137Y-56880000D02*
G75*
G03*
X159843137Y-56880000I-56569J0D01*
G01*
D13*
%TO.C,U2*%
X128485000Y-62360000D02*
G75*
G03*
X128485000Y-62360000I-125000J0D01*
G01*
D12*
%TO.C,U6*%
X125343137Y-40130000D02*
G75*
G03*
X125343137Y-40130000I-56569J0D01*
G01*
D13*
%TO.C,U3*%
X114840000Y-43100000D02*
G75*
G03*
X114840000Y-43100000I0J0D01*
G01*
D10*
%TO.C,U1*%
X155120000Y-74015000D02*
G75*
G03*
X155120000Y-74015000I-100000J0D01*
G01*
D12*
%TO.C,U5*%
X122823137Y-73630000D02*
G75*
G03*
X122823137Y-73630000I-56569J0D01*
G01*
D10*
%TO.C,U1*%
X120620000Y-40515000D02*
G75*
G03*
X120620000Y-40515000I-100000J0D01*
G01*
D14*
%TO.C,CR1*%
X123876200Y-78800000D02*
G75*
G03*
X123876200Y-78800000I-76200J0D01*
G01*
D12*
%TO.C,U5*%
X157323137Y-56880000D02*
G75*
G03*
X157323137Y-56880000I-56569J0D01*
G01*
%TD*%
M02*
