%TF.GenerationSoftware,KiCad,Pcbnew,7.0.7-7.0.7~ubuntu22.04.1*%
%TF.CreationDate,2023-09-16T16:33:31-05:00*%
%TF.ProjectId,BT_PANELIZED,42545f50-414e-4454-9c49-5a45442e6b69,000*%
%TF.SameCoordinates,Original*%
%TF.FileFunction,Soldermask,Bot*%
%TF.FilePolarity,Negative*%
%FSLAX46Y46*%
G04 Gerber Fmt 4.6, Leading zero omitted, Abs format (unit mm)*
G04 Created by KiCad (PCBNEW 7.0.7-7.0.7~ubuntu22.04.1) date 2023-09-16 16:33:31*
%MOMM*%
%LPD*%
G01*
G04 APERTURE LIST*
%ADD10C,0.500000*%
%ADD11C,2.000000*%
%ADD12O,1.000000X1.700000*%
%ADD13R,0.850000X0.850000*%
%ADD14O,0.850000X0.850000*%
%ADD15O,0.700000X0.950000*%
G04 APERTURE END LIST*
D10*
%TO.C,REF\u002A\u002A*%
X100288000Y-37760000D03*
%TD*%
%TO.C,REF\u002A\u002A*%
X101054000Y-37760000D03*
%TD*%
%TO.C,REF\u002A\u002A*%
X101820000Y-37760000D03*
%TD*%
%TO.C,REF\u002A\u002A*%
X97990000Y-37760000D03*
%TD*%
%TO.C,REF\u002A\u002A*%
X98756000Y-37760000D03*
%TD*%
%TO.C,REF\u002A\u002A*%
X99522000Y-37760000D03*
%TD*%
%TO.C,REF\u002A\u002A*%
X176402000Y-85730000D03*
%TD*%
%TO.C,REF\u002A\u002A*%
X175616000Y-37760000D03*
%TD*%
%TO.C,REF\u002A\u002A*%
X174850000Y-37760000D03*
%TD*%
%TO.C,REF\u002A\u002A*%
X178680000Y-37760000D03*
%TD*%
%TO.C,REF\u002A\u002A*%
X177914000Y-37760000D03*
%TD*%
%TO.C,REF\u002A\u002A*%
X177148000Y-37760000D03*
%TD*%
%TO.C,REF\u002A\u002A*%
X105140000Y-91318000D03*
%TD*%
%TO.C,REF\u002A\u002A*%
X105140000Y-90552000D03*
%TD*%
%TO.C,REF\u002A\u002A*%
X105140000Y-92084000D03*
%TD*%
%TO.C,REF\u002A\u002A*%
X105140000Y-92850000D03*
%TD*%
%TO.C,REF\u002A\u002A*%
X105140000Y-89786000D03*
%TD*%
%TO.C,REF\u002A\u002A*%
X105140000Y-89020000D03*
%TD*%
D11*
%TO.C,REF\u002A\u002A*%
X175314263Y-33950000D03*
%TD*%
%TO.C,REF\u002A\u002A*%
X101335737Y-89510000D03*
%TD*%
D10*
%TO.C,REF\u002A\u002A*%
X105055000Y-43345000D03*
%TD*%
%TO.C,REF\u002A\u002A*%
X105055000Y-44110000D03*
%TD*%
%TO.C,REF\u002A\u002A*%
X105055000Y-45640000D03*
%TD*%
%TO.C,REF\u002A\u002A*%
X105055000Y-42580000D03*
%TD*%
%TO.C,REF\u002A\u002A*%
X105055000Y-44875000D03*
%TD*%
%TO.C,REF\u002A\u002A*%
X105055000Y-46405000D03*
%TD*%
%TO.C,REF\u002A\u002A*%
X105055000Y-47170000D03*
%TD*%
%TO.C,REF\u002A\u002A*%
X176382000Y-37760000D03*
%TD*%
%TO.C,REF\u002A\u002A*%
X137105000Y-43345000D03*
%TD*%
%TO.C,REF\u002A\u002A*%
X137105000Y-44875000D03*
%TD*%
%TO.C,REF\u002A\u002A*%
X137105000Y-46405000D03*
%TD*%
%TO.C,REF\u002A\u002A*%
X137105000Y-42580000D03*
%TD*%
%TO.C,REF\u002A\u002A*%
X137105000Y-45640000D03*
%TD*%
%TO.C,REF\u002A\u002A*%
X137105000Y-44110000D03*
%TD*%
%TO.C,REF\u002A\u002A*%
X137105000Y-47170000D03*
%TD*%
%TO.C,REF\u002A\u002A*%
X139555000Y-45640000D03*
%TD*%
%TO.C,REF\u002A\u002A*%
X139555000Y-47170000D03*
%TD*%
%TO.C,REF\u002A\u002A*%
X139555000Y-42580000D03*
%TD*%
%TO.C,REF\u002A\u002A*%
X139555000Y-44110000D03*
%TD*%
%TO.C,REF\u002A\u002A*%
X139555000Y-43345000D03*
%TD*%
%TO.C,REF\u002A\u002A*%
X139555000Y-44875000D03*
%TD*%
%TO.C,REF\u002A\u002A*%
X139555000Y-46405000D03*
%TD*%
%TO.C,REF\u002A\u002A*%
X171605000Y-43345000D03*
%TD*%
%TO.C,REF\u002A\u002A*%
X171605000Y-44875000D03*
%TD*%
%TO.C,REF\u002A\u002A*%
X171605000Y-46405000D03*
%TD*%
%TO.C,REF\u002A\u002A*%
X171605000Y-42580000D03*
%TD*%
%TO.C,REF\u002A\u002A*%
X171605000Y-45640000D03*
%TD*%
%TO.C,REF\u002A\u002A*%
X171605000Y-44110000D03*
%TD*%
%TO.C,REF\u002A\u002A*%
X171605000Y-47170000D03*
%TD*%
%TO.C,REF\u002A\u002A*%
X97980000Y-69860000D03*
%TD*%
%TO.C,REF\u002A\u002A*%
X99512000Y-69860000D03*
%TD*%
%TO.C,REF\u002A\u002A*%
X98746000Y-69860000D03*
%TD*%
%TO.C,REF\u002A\u002A*%
X101810000Y-69860000D03*
%TD*%
%TO.C,REF\u002A\u002A*%
X100278000Y-69860000D03*
%TD*%
%TO.C,REF\u002A\u002A*%
X101044000Y-69860000D03*
%TD*%
%TO.C,REF\u002A\u002A*%
X139555000Y-62390000D03*
%TD*%
%TO.C,REF\u002A\u002A*%
X139555000Y-79140000D03*
%TD*%
%TO.C,REF\u002A\u002A*%
X137105000Y-60860000D03*
%TD*%
%TO.C,REF\u002A\u002A*%
X137105000Y-77610000D03*
%TD*%
%TO.C,REF\u002A\u002A*%
X137105000Y-62390000D03*
%TD*%
%TO.C,REF\u002A\u002A*%
X137105000Y-79140000D03*
%TD*%
%TO.C,REF\u002A\u002A*%
X139555000Y-63155000D03*
%TD*%
%TO.C,REF\u002A\u002A*%
X139555000Y-79905000D03*
%TD*%
%TO.C,REF\u002A\u002A*%
X137105000Y-63920000D03*
%TD*%
%TO.C,REF\u002A\u002A*%
X137105000Y-80670000D03*
%TD*%
%TO.C,REF\u002A\u002A*%
X139555000Y-60860000D03*
%TD*%
%TO.C,REF\u002A\u002A*%
X139555000Y-77610000D03*
%TD*%
%TO.C,REF\u002A\u002A*%
X139555000Y-63920000D03*
%TD*%
%TO.C,REF\u002A\u002A*%
X139555000Y-80670000D03*
%TD*%
%TO.C,REF\u002A\u002A*%
X137105000Y-59330000D03*
%TD*%
%TO.C,REF\u002A\u002A*%
X137105000Y-76080000D03*
%TD*%
%TO.C,REF\u002A\u002A*%
X137105000Y-63155000D03*
%TD*%
%TO.C,REF\u002A\u002A*%
X137105000Y-79905000D03*
%TD*%
%TO.C,REF\u002A\u002A*%
X137105000Y-61625000D03*
%TD*%
%TO.C,REF\u002A\u002A*%
X137105000Y-78375000D03*
%TD*%
%TO.C,REF\u002A\u002A*%
X137105000Y-60095000D03*
%TD*%
%TO.C,REF\u002A\u002A*%
X137105000Y-76845000D03*
%TD*%
%TO.C,REF\u002A\u002A*%
X105055000Y-63920000D03*
%TD*%
%TO.C,REF\u002A\u002A*%
X105055000Y-80670000D03*
%TD*%
%TO.C,REF\u002A\u002A*%
X105055000Y-63155000D03*
%TD*%
%TO.C,REF\u002A\u002A*%
X105055000Y-79905000D03*
%TD*%
%TO.C,REF\u002A\u002A*%
X171605000Y-60095000D03*
%TD*%
%TO.C,REF\u002A\u002A*%
X171605000Y-76845000D03*
%TD*%
%TO.C,REF\u002A\u002A*%
X105055000Y-59330000D03*
%TD*%
%TO.C,REF\u002A\u002A*%
X105055000Y-76080000D03*
%TD*%
%TO.C,REF\u002A\u002A*%
X139555000Y-60095000D03*
%TD*%
%TO.C,REF\u002A\u002A*%
X139555000Y-76845000D03*
%TD*%
%TO.C,REF\u002A\u002A*%
X139555000Y-61625000D03*
%TD*%
%TO.C,REF\u002A\u002A*%
X139555000Y-78375000D03*
%TD*%
%TO.C,REF\u002A\u002A*%
X139555000Y-59330000D03*
%TD*%
%TO.C,REF\u002A\u002A*%
X139555000Y-76080000D03*
%TD*%
%TO.C,REF\u002A\u002A*%
X105055000Y-61625000D03*
%TD*%
%TO.C,REF\u002A\u002A*%
X105055000Y-78375000D03*
%TD*%
%TO.C,REF\u002A\u002A*%
X105055000Y-62390000D03*
%TD*%
%TO.C,REF\u002A\u002A*%
X105055000Y-79140000D03*
%TD*%
%TO.C,REF\u002A\u002A*%
X105055000Y-60860000D03*
%TD*%
%TO.C,REF\u002A\u002A*%
X105055000Y-77610000D03*
%TD*%
%TO.C,REF\u002A\u002A*%
X105055000Y-60095000D03*
%TD*%
%TO.C,REF\u002A\u002A*%
X105055000Y-76845000D03*
%TD*%
%TO.C,REF\u002A\u002A*%
X171605000Y-59330000D03*
%TD*%
%TO.C,REF\u002A\u002A*%
X171605000Y-76080000D03*
%TD*%
%TO.C,REF\u002A\u002A*%
X171605000Y-63155000D03*
%TD*%
%TO.C,REF\u002A\u002A*%
X171605000Y-79905000D03*
%TD*%
%TO.C,REF\u002A\u002A*%
X171605000Y-61625000D03*
%TD*%
%TO.C,REF\u002A\u002A*%
X171605000Y-78375000D03*
%TD*%
%TO.C,REF\u002A\u002A*%
X171605000Y-63920000D03*
%TD*%
%TO.C,REF\u002A\u002A*%
X171605000Y-80670000D03*
%TD*%
%TO.C,REF\u002A\u002A*%
X171605000Y-60860000D03*
%TD*%
%TO.C,REF\u002A\u002A*%
X171605000Y-77610000D03*
%TD*%
%TO.C,REF\u002A\u002A*%
X171605000Y-62390000D03*
%TD*%
%TO.C,REF\u002A\u002A*%
X171605000Y-79140000D03*
%TD*%
%TO.C,REF\u002A\u002A*%
X177148000Y-69860000D03*
%TD*%
%TO.C,REF\u002A\u002A*%
X171510000Y-32152000D03*
%TD*%
D12*
%TO.C,J1*%
X115450000Y-79990000D03*
X124090000Y-79990000D03*
X124090000Y-83790000D03*
X115450000Y-83790000D03*
%TD*%
%TO.C,J1*%
X149950000Y-79990000D03*
X158590000Y-79990000D03*
X158590000Y-83790000D03*
X149950000Y-83790000D03*
%TD*%
D10*
%TO.C,REF\u002A\u002A*%
X97990000Y-53220000D03*
%TD*%
%TO.C,REF\u002A\u002A*%
X175636000Y-85730000D03*
%TD*%
%TO.C,REF\u002A\u002A*%
X177168000Y-85730000D03*
%TD*%
%TO.C,REF\u002A\u002A*%
X98756000Y-53220000D03*
%TD*%
%TO.C,REF\u002A\u002A*%
X98726000Y-85720000D03*
%TD*%
%TO.C,REF\u002A\u002A*%
X175646000Y-53220000D03*
%TD*%
%TO.C,REF\u002A\u002A*%
X174850000Y-69860000D03*
%TD*%
%TO.C,REF\u002A\u002A*%
X101790000Y-85720000D03*
%TD*%
%TO.C,REF\u002A\u002A*%
X105130000Y-34440000D03*
%TD*%
%TO.C,REF\u002A\u002A*%
X101024000Y-85720000D03*
%TD*%
%TO.C,REF\u002A\u002A*%
X171510000Y-33684000D03*
%TD*%
D13*
%TO.C,J3*%
X146730000Y-83900000D03*
D14*
X145730000Y-83900000D03*
X144730000Y-83900000D03*
X143730000Y-83900000D03*
X142730000Y-83900000D03*
%TD*%
D15*
%TO.C,SW1*%
X131665000Y-65780000D03*
X135715000Y-65780000D03*
%TD*%
D10*
%TO.C,REF\u002A\u002A*%
X105130000Y-30610000D03*
%TD*%
%TO.C,REF\u002A\u002A*%
X171510000Y-92144000D03*
%TD*%
D13*
%TO.C,J3*%
X146730000Y-50400000D03*
D14*
X145730000Y-50400000D03*
X144730000Y-50400000D03*
X143730000Y-50400000D03*
X142730000Y-50400000D03*
%TD*%
D10*
%TO.C,REF\u002A\u002A*%
X178700000Y-85730000D03*
%TD*%
%TO.C,REF\u002A\u002A*%
X97960000Y-85720000D03*
%TD*%
%TO.C,REF\u002A\u002A*%
X101054000Y-53220000D03*
%TD*%
%TO.C,REF\u002A\u002A*%
X171510000Y-32918000D03*
%TD*%
%TO.C,REF\u002A\u002A*%
X178710000Y-53220000D03*
%TD*%
%TO.C,REF\u002A\u002A*%
X105130000Y-32908000D03*
%TD*%
%TO.C,REF\u002A\u002A*%
X171510000Y-91378000D03*
%TD*%
%TO.C,REF\u002A\u002A*%
X99492000Y-85720000D03*
%TD*%
D13*
%TO.C,J3*%
X112230000Y-67150000D03*
D14*
X111230000Y-67150000D03*
X110230000Y-67150000D03*
X109230000Y-67150000D03*
X108230000Y-67150000D03*
%TD*%
D10*
%TO.C,REF\u002A\u002A*%
X176412000Y-53220000D03*
%TD*%
%TO.C,REF\u002A\u002A*%
X177934000Y-85730000D03*
%TD*%
%TO.C,REF\u002A\u002A*%
X99522000Y-53220000D03*
%TD*%
%TO.C,REF\u002A\u002A*%
X171510000Y-90612000D03*
%TD*%
%TO.C,REF\u002A\u002A*%
X177944000Y-53220000D03*
%TD*%
%TO.C,REF\u002A\u002A*%
X174870000Y-85730000D03*
%TD*%
%TO.C,REF\u002A\u002A*%
X178680000Y-69860000D03*
%TD*%
%TO.C,REF\u002A\u002A*%
X171510000Y-89080000D03*
%TD*%
%TO.C,REF\u002A\u002A*%
X171510000Y-89846000D03*
%TD*%
%TO.C,REF\u002A\u002A*%
X105130000Y-32142000D03*
%TD*%
%TO.C,REF\u002A\u002A*%
X176382000Y-69860000D03*
%TD*%
%TO.C,REF\u002A\u002A*%
X105130000Y-31376000D03*
%TD*%
%TO.C,REF\u002A\u002A*%
X175616000Y-69860000D03*
%TD*%
D13*
%TO.C,J3*%
X112230000Y-50400000D03*
D14*
X111230000Y-50400000D03*
X110230000Y-50400000D03*
X109230000Y-50400000D03*
X108230000Y-50400000D03*
%TD*%
D15*
%TO.C,SW1*%
X131665000Y-49030000D03*
X135715000Y-49030000D03*
%TD*%
D10*
%TO.C,REF\u002A\u002A*%
X174880000Y-53220000D03*
%TD*%
%TO.C,REF\u002A\u002A*%
X177178000Y-53220000D03*
%TD*%
D15*
%TO.C,SW1*%
X131665000Y-82530000D03*
X135715000Y-82530000D03*
%TD*%
D12*
%TO.C,J1*%
X149950000Y-63240000D03*
X158590000Y-63240000D03*
X158590000Y-67040000D03*
X149950000Y-67040000D03*
%TD*%
D10*
%TO.C,REF\u002A\u002A*%
X105130000Y-33674000D03*
%TD*%
D15*
%TO.C,SW1*%
X166165000Y-82530000D03*
X170215000Y-82530000D03*
%TD*%
D12*
%TO.C,J1*%
X149950000Y-46490000D03*
X158590000Y-46490000D03*
X158590000Y-50290000D03*
X149950000Y-50290000D03*
%TD*%
D10*
%TO.C,REF\u002A\u002A*%
X177914000Y-69860000D03*
%TD*%
%TO.C,REF\u002A\u002A*%
X171510000Y-30620000D03*
%TD*%
%TO.C,REF\u002A\u002A*%
X171510000Y-34450000D03*
%TD*%
%TO.C,REF\u002A\u002A*%
X171510000Y-31386000D03*
%TD*%
D13*
%TO.C,J3*%
X112230000Y-83900000D03*
D14*
X111230000Y-83900000D03*
X110230000Y-83900000D03*
X109230000Y-83900000D03*
X108230000Y-83900000D03*
%TD*%
D10*
%TO.C,REF\u002A\u002A*%
X100258000Y-85720000D03*
%TD*%
D15*
%TO.C,SW1*%
X166165000Y-49030000D03*
X170215000Y-49030000D03*
%TD*%
D10*
%TO.C,REF\u002A\u002A*%
X100288000Y-53220000D03*
%TD*%
D12*
%TO.C,J1*%
X115450000Y-63240000D03*
X124090000Y-63240000D03*
X124090000Y-67040000D03*
X115450000Y-67040000D03*
%TD*%
D15*
%TO.C,SW1*%
X166165000Y-65780000D03*
X170215000Y-65780000D03*
%TD*%
D13*
%TO.C,J3*%
X146730000Y-67150000D03*
D14*
X145730000Y-67150000D03*
X144730000Y-67150000D03*
X143730000Y-67150000D03*
X142730000Y-67150000D03*
%TD*%
D10*
%TO.C,REF\u002A\u002A*%
X101820000Y-53220000D03*
%TD*%
D12*
%TO.C,J1*%
X115450000Y-46490000D03*
X124090000Y-46490000D03*
X124090000Y-50290000D03*
X115450000Y-50290000D03*
%TD*%
D10*
%TO.C,REF\u002A\u002A*%
X171510000Y-92910000D03*
%TD*%
M02*
