%TF.GenerationSoftware,KiCad,Pcbnew,7.0.7-7.0.7~ubuntu22.04.1*%
%TF.CreationDate,2023-09-16T16:33:30-05:00*%
%TF.ProjectId,BT_PANELIZED,42545f50-414e-4454-9c49-5a45442e6b69,000*%
%TF.SameCoordinates,Original*%
%TF.FileFunction,Legend,Top*%
%TF.FilePolarity,Positive*%
%FSLAX46Y46*%
G04 Gerber Fmt 4.6, Leading zero omitted, Abs format (unit mm)*
G04 Created by KiCad (PCBNEW 7.0.7-7.0.7~ubuntu22.04.1) date 2023-09-16 16:33:30*
%MOMM*%
%LPD*%
G01*
G04 APERTURE LIST*
%ADD10C,0.250000*%
%ADD11C,0.200000*%
%ADD12C,0.120000*%
%ADD13C,0.152400*%
%ADD14C,0.127000*%
G04 APERTURE END LIST*
D10*
%TO.C,U3*%
X114840000Y-59850000D02*
G75*
G03*
X114840000Y-59850000I0J0D01*
G01*
D11*
%TO.C,D1*%
X121440000Y-44760000D02*
X121440000Y-43560000D01*
X122240000Y-44760000D02*
X122240000Y-43560000D01*
D12*
X121450828Y-43090000D02*
G75*
G03*
X121450828Y-43090000I-60828J0D01*
G01*
D11*
%TO.C,U1*%
X120620000Y-74015000D02*
G75*
G03*
X120620000Y-74015000I-100000J0D01*
G01*
X155120000Y-40515000D02*
G75*
G03*
X155120000Y-40515000I-100000J0D01*
G01*
D13*
%TO.C,CR1*%
X157336200Y-45320000D02*
G75*
G03*
X157336200Y-45320000I-76200J0D01*
G01*
D11*
%TO.C,D1*%
X155940000Y-78260000D02*
X155940000Y-77060000D01*
X156740000Y-78260000D02*
X156740000Y-77060000D01*
D12*
X155950828Y-76590000D02*
G75*
G03*
X155950828Y-76590000I-60828J0D01*
G01*
D10*
%TO.C,U2*%
X128485000Y-45620000D02*
G75*
G03*
X128485000Y-45620000I-125000J0D01*
G01*
D14*
%TO.C,D2*%
X163975000Y-50250000D02*
X163975000Y-51070000D01*
X163155000Y-50250000D02*
X163155000Y-51070000D01*
D12*
X164031569Y-49740000D02*
G75*
G03*
X164031569Y-49740000I-56569J0D01*
G01*
D11*
%TO.C,D1*%
X155940000Y-44760000D02*
X155940000Y-43560000D01*
X156740000Y-44760000D02*
X156740000Y-43560000D01*
D12*
X155950828Y-43090000D02*
G75*
G03*
X155950828Y-43090000I-60828J0D01*
G01*
D13*
%TO.C,CR1*%
X122836200Y-45320000D02*
G75*
G03*
X122836200Y-45320000I-76200J0D01*
G01*
D12*
%TO.C,U6*%
X159843137Y-56880000D02*
G75*
G03*
X159843137Y-56880000I-56569J0D01*
G01*
D14*
%TO.C,D2*%
X129475000Y-83750000D02*
X129475000Y-84570000D01*
X128655000Y-83750000D02*
X128655000Y-84570000D01*
D12*
X129531569Y-83240000D02*
G75*
G03*
X129531569Y-83240000I-56569J0D01*
G01*
D10*
%TO.C,U2*%
X128485000Y-62370000D02*
G75*
G03*
X128485000Y-62370000I-125000J0D01*
G01*
D14*
%TO.C,D2*%
X129475000Y-50250000D02*
X129475000Y-51070000D01*
X128655000Y-50250000D02*
X128655000Y-51070000D01*
D12*
X129531569Y-49740000D02*
G75*
G03*
X129531569Y-49740000I-56569J0D01*
G01*
%TO.C,U6*%
X159843137Y-73630000D02*
G75*
G03*
X159843137Y-73630000I-56569J0D01*
G01*
%TO.C,U5*%
X157323137Y-56880000D02*
G75*
G03*
X157323137Y-56880000I-56569J0D01*
G01*
D11*
%TO.C,J2*%
X128515000Y-39465000D02*
G75*
G03*
X128515000Y-39465000I-100000J0D01*
G01*
D10*
%TO.C,U2*%
X162985000Y-45620000D02*
G75*
G03*
X162985000Y-45620000I-125000J0D01*
G01*
D11*
%TO.C,D1*%
X121440000Y-61510000D02*
X121440000Y-60310000D01*
X122240000Y-61510000D02*
X122240000Y-60310000D01*
D12*
X121450828Y-59840000D02*
G75*
G03*
X121450828Y-59840000I-60828J0D01*
G01*
D10*
%TO.C,U3*%
X114840000Y-43100000D02*
G75*
G03*
X114840000Y-43100000I0J0D01*
G01*
X149340000Y-76600000D02*
G75*
G03*
X149340000Y-76600000I0J0D01*
G01*
D12*
%TO.C,U7*%
X162363137Y-40130000D02*
G75*
G03*
X162363137Y-40130000I-56569J0D01*
G01*
%TO.C,U6*%
X125343137Y-40130000D02*
G75*
G03*
X125343137Y-40130000I-56569J0D01*
G01*
%TO.C,U5*%
X122823137Y-73630000D02*
G75*
G03*
X122823137Y-73630000I-56569J0D01*
G01*
D10*
%TO.C,U3*%
X149340000Y-43100000D02*
G75*
G03*
X149340000Y-43100000I0J0D01*
G01*
D11*
%TO.C,U4*%
X140630000Y-82000000D02*
G75*
G03*
X140630000Y-82000000I-100000J0D01*
G01*
D12*
%TO.C,U5*%
X157323137Y-40130000D02*
G75*
G03*
X157323137Y-40130000I-56569J0D01*
G01*
D11*
%TO.C,D1*%
X121440000Y-78260000D02*
X121440000Y-77060000D01*
X122240000Y-78260000D02*
X122240000Y-77060000D01*
D12*
X121450828Y-76590000D02*
G75*
G03*
X121450828Y-76590000I-60828J0D01*
G01*
D14*
%TO.C,D3*%
X127325000Y-50250000D02*
X127325000Y-51070000D01*
X126505000Y-50250000D02*
X126505000Y-51070000D01*
D12*
X127381569Y-49740000D02*
G75*
G03*
X127381569Y-49740000I-56569J0D01*
G01*
D10*
%TO.C,U2*%
X162985000Y-79120000D02*
G75*
G03*
X162985000Y-79120000I-125000J0D01*
G01*
D12*
%TO.C,U6*%
X125343137Y-56880000D02*
G75*
G03*
X125343137Y-56880000I-56569J0D01*
G01*
D11*
%TO.C,U4*%
X106130000Y-48500000D02*
G75*
G03*
X106130000Y-48500000I-100000J0D01*
G01*
D12*
%TO.C,U5*%
X122823137Y-56880000D02*
G75*
G03*
X122823137Y-56880000I-56569J0D01*
G01*
D13*
%TO.C,CR1*%
X122836200Y-78820000D02*
G75*
G03*
X122836200Y-78820000I-76200J0D01*
G01*
D11*
%TO.C,J2*%
X163015000Y-39465000D02*
G75*
G03*
X163015000Y-39465000I-100000J0D01*
G01*
D10*
%TO.C,U2*%
X162985000Y-62370000D02*
G75*
G03*
X162985000Y-62370000I-125000J0D01*
G01*
D12*
%TO.C,U5*%
X157323137Y-73630000D02*
G75*
G03*
X157323137Y-73630000I-56569J0D01*
G01*
D13*
%TO.C,CR1*%
X157336200Y-78820000D02*
G75*
G03*
X157336200Y-78820000I-76200J0D01*
G01*
D12*
%TO.C,U5*%
X122823137Y-40130000D02*
G75*
G03*
X122823137Y-40130000I-56569J0D01*
G01*
%TO.C,U7*%
X162363137Y-73630000D02*
G75*
G03*
X162363137Y-73630000I-56569J0D01*
G01*
X127863137Y-40130000D02*
G75*
G03*
X127863137Y-40130000I-56569J0D01*
G01*
D11*
%TO.C,U1*%
X155120000Y-57265000D02*
G75*
G03*
X155120000Y-57265000I-100000J0D01*
G01*
D13*
%TO.C,CR1*%
X122836200Y-62070000D02*
G75*
G03*
X122836200Y-62070000I-76200J0D01*
G01*
X157336200Y-62070000D02*
G75*
G03*
X157336200Y-62070000I-76200J0D01*
G01*
D10*
%TO.C,U3*%
X114840000Y-76600000D02*
G75*
G03*
X114840000Y-76600000I0J0D01*
G01*
D11*
%TO.C,J2*%
X128515000Y-72965000D02*
G75*
G03*
X128515000Y-72965000I-100000J0D01*
G01*
D14*
%TO.C,D3*%
X127325000Y-83750000D02*
X127325000Y-84570000D01*
X126505000Y-83750000D02*
X126505000Y-84570000D01*
D12*
X127381569Y-83240000D02*
G75*
G03*
X127381569Y-83240000I-56569J0D01*
G01*
D11*
%TO.C,U4*%
X140630000Y-65250000D02*
G75*
G03*
X140630000Y-65250000I-100000J0D01*
G01*
%TO.C,J2*%
X163015000Y-72965000D02*
G75*
G03*
X163015000Y-72965000I-100000J0D01*
G01*
D14*
%TO.C,D2*%
X163975000Y-83750000D02*
X163975000Y-84570000D01*
X163155000Y-83750000D02*
X163155000Y-84570000D01*
D12*
X164031569Y-83240000D02*
G75*
G03*
X164031569Y-83240000I-56569J0D01*
G01*
D14*
X129475000Y-67000000D02*
X129475000Y-67820000D01*
X128655000Y-67000000D02*
X128655000Y-67820000D01*
D12*
X129531569Y-66490000D02*
G75*
G03*
X129531569Y-66490000I-56569J0D01*
G01*
D14*
%TO.C,D3*%
X161825000Y-83750000D02*
X161825000Y-84570000D01*
X161005000Y-83750000D02*
X161005000Y-84570000D01*
D12*
X161881569Y-83240000D02*
G75*
G03*
X161881569Y-83240000I-56569J0D01*
G01*
%TO.C,U6*%
X125343137Y-73630000D02*
G75*
G03*
X125343137Y-73630000I-56569J0D01*
G01*
D11*
%TO.C,J2*%
X163015000Y-56215000D02*
G75*
G03*
X163015000Y-56215000I-100000J0D01*
G01*
%TO.C,D1*%
X155940000Y-61510000D02*
X155940000Y-60310000D01*
X156740000Y-61510000D02*
X156740000Y-60310000D01*
D12*
X155950828Y-59840000D02*
G75*
G03*
X155950828Y-59840000I-60828J0D01*
G01*
D11*
%TO.C,U1*%
X120620000Y-57265000D02*
G75*
G03*
X120620000Y-57265000I-100000J0D01*
G01*
D10*
%TO.C,U2*%
X128485000Y-79120000D02*
G75*
G03*
X128485000Y-79120000I-125000J0D01*
G01*
D11*
%TO.C,J2*%
X128515000Y-56215000D02*
G75*
G03*
X128515000Y-56215000I-100000J0D01*
G01*
%TO.C,U1*%
X120620000Y-40515000D02*
G75*
G03*
X120620000Y-40515000I-100000J0D01*
G01*
D12*
%TO.C,U7*%
X162363137Y-56880000D02*
G75*
G03*
X162363137Y-56880000I-56569J0D01*
G01*
D14*
%TO.C,D2*%
X163975000Y-67000000D02*
X163975000Y-67820000D01*
X163155000Y-67000000D02*
X163155000Y-67820000D01*
D12*
X164031569Y-66490000D02*
G75*
G03*
X164031569Y-66490000I-56569J0D01*
G01*
%TO.C,U7*%
X127863137Y-73630000D02*
G75*
G03*
X127863137Y-73630000I-56569J0D01*
G01*
X127863137Y-56880000D02*
G75*
G03*
X127863137Y-56880000I-56569J0D01*
G01*
D14*
%TO.C,D3*%
X161825000Y-67000000D02*
X161825000Y-67820000D01*
X161005000Y-67000000D02*
X161005000Y-67820000D01*
D12*
X161881569Y-66490000D02*
G75*
G03*
X161881569Y-66490000I-56569J0D01*
G01*
D11*
%TO.C,U4*%
X106130000Y-82000000D02*
G75*
G03*
X106130000Y-82000000I-100000J0D01*
G01*
X140630000Y-48500000D02*
G75*
G03*
X140630000Y-48500000I-100000J0D01*
G01*
D12*
%TO.C,U6*%
X159843137Y-40130000D02*
G75*
G03*
X159843137Y-40130000I-56569J0D01*
G01*
D11*
%TO.C,U1*%
X155120000Y-74015000D02*
G75*
G03*
X155120000Y-74015000I-100000J0D01*
G01*
D14*
%TO.C,D3*%
X127325000Y-67000000D02*
X127325000Y-67820000D01*
X126505000Y-67000000D02*
X126505000Y-67820000D01*
D12*
X127381569Y-66490000D02*
G75*
G03*
X127381569Y-66490000I-56569J0D01*
G01*
D14*
X161825000Y-50250000D02*
X161825000Y-51070000D01*
X161005000Y-50250000D02*
X161005000Y-51070000D01*
D12*
X161881569Y-49740000D02*
G75*
G03*
X161881569Y-49740000I-56569J0D01*
G01*
D11*
%TO.C,U4*%
X106130000Y-65250000D02*
G75*
G03*
X106130000Y-65250000I-100000J0D01*
G01*
D10*
%TO.C,U3*%
X149340000Y-59850000D02*
G75*
G03*
X149340000Y-59850000I0J0D01*
G01*
%TD*%
M02*
