%TF.GenerationSoftware,KiCad,Pcbnew,7.0.7-7.0.7~ubuntu22.04.1*%
%TF.CreationDate,2023-09-16T16:33:30-05:00*%
%TF.ProjectId,BT_PANELIZED,42545f50-414e-4454-9c49-5a45442e6b69,000*%
%TF.SameCoordinates,Original*%
%TF.FileFunction,Paste,Top*%
%TF.FilePolarity,Positive*%
%FSLAX46Y46*%
G04 Gerber Fmt 4.6, Leading zero omitted, Abs format (unit mm)*
G04 Created by KiCad (PCBNEW 7.0.7-7.0.7~ubuntu22.04.1) date 2023-09-16 16:33:30*
%MOMM*%
%LPD*%
G01*
G04 APERTURE LIST*
%ADD10C,2.000000*%
%ADD11R,0.250000X1.000000*%
%ADD12R,0.600000X0.490000*%
%ADD13R,0.420000X0.700000*%
%ADD14R,0.200000X0.850000*%
%ADD15R,0.700000X1.150000*%
%ADD16R,0.800000X1.150000*%
%ADD17R,0.900000X1.150000*%
%ADD18R,0.500000X0.550000*%
%ADD19R,0.490000X0.600000*%
%ADD20R,0.838200X0.406400*%
%ADD21R,0.700000X1.200000*%
%ADD22R,0.550000X0.500000*%
%ADD23R,0.400000X0.800000*%
%ADD24R,2.500000X1.750000*%
%ADD25R,0.500000X0.500000*%
%ADD26R,0.350000X0.400000*%
%ADD27R,0.650000X0.900000*%
%ADD28R,0.800000X0.300000*%
%ADD29R,0.800000X0.400000*%
%ADD30R,0.400000X0.400000*%
%ADD31R,1.650000X1.050000*%
%ADD32R,1.100000X0.600000*%
G04 APERTURE END LIST*
D10*
%TO.C,REF\u002A\u002A*%
X175314263Y-33950000D03*
%TD*%
%TO.C,REF\u002A\u002A*%
X101335737Y-89510000D03*
%TD*%
D11*
%TO.C,U3*%
X115190000Y-59100000D03*
X115690000Y-59100000D03*
X116190000Y-59100000D03*
X116690000Y-59100000D03*
X117190000Y-59100000D03*
X117690000Y-59100000D03*
X117690000Y-57400000D03*
X117190000Y-57400000D03*
X116690000Y-57400000D03*
X116190000Y-57400000D03*
X115690000Y-57400000D03*
X115190000Y-57400000D03*
%TD*%
D12*
%TO.C,R26*%
X122920000Y-72857000D03*
X122920000Y-71943000D03*
%TD*%
%TO.C,R2*%
X154110000Y-61397000D03*
X154110000Y-60483000D03*
%TD*%
D13*
%TO.C,D1*%
X121840000Y-44885000D03*
X121840000Y-43435000D03*
%TD*%
D12*
%TO.C,R3*%
X153040000Y-56107000D03*
X153040000Y-55193000D03*
%TD*%
D14*
%TO.C,U1*%
X119920000Y-74440000D03*
X119520000Y-74440000D03*
X119120000Y-74440000D03*
X119120000Y-75540000D03*
X119520000Y-75540000D03*
X119920000Y-75540000D03*
%TD*%
D15*
%TO.C,J1*%
X119270000Y-79990000D03*
D16*
X121290000Y-79990000D03*
D17*
X122520000Y-79990000D03*
D15*
X120270000Y-79990000D03*
D16*
X118250000Y-79990000D03*
D17*
X117020000Y-79990000D03*
%TD*%
D15*
%TO.C,J1*%
X153770000Y-79990000D03*
D16*
X155790000Y-79990000D03*
D17*
X157020000Y-79990000D03*
D15*
X154770000Y-79990000D03*
D16*
X152750000Y-79990000D03*
D17*
X151520000Y-79990000D03*
%TD*%
D18*
%TO.C,C10*%
X114190000Y-57400000D03*
X113210000Y-57400000D03*
%TD*%
D12*
%TO.C,R23*%
X164640000Y-46073000D03*
X164640000Y-46987000D03*
%TD*%
%TO.C,R13*%
X160720000Y-56107000D03*
X160720000Y-55193000D03*
%TD*%
%TO.C,R14*%
X125710000Y-60483000D03*
X125710000Y-61397000D03*
%TD*%
%TO.C,R14*%
X160210000Y-60483000D03*
X160210000Y-61397000D03*
%TD*%
D14*
%TO.C,U1*%
X154420000Y-40940000D03*
X154020000Y-40940000D03*
X153620000Y-40940000D03*
X153620000Y-42040000D03*
X154020000Y-42040000D03*
X154420000Y-42040000D03*
%TD*%
D19*
%TO.C,R18*%
X132097000Y-44990000D03*
X131183000Y-44990000D03*
%TD*%
D12*
%TO.C,R26*%
X157420000Y-72857000D03*
X157420000Y-71943000D03*
%TD*%
D20*
%TO.C,CR1*%
X157750000Y-44720700D03*
X157750000Y-43679300D03*
%TD*%
D12*
%TO.C,R11*%
X164640000Y-81563000D03*
X164640000Y-82477000D03*
%TD*%
%TO.C,R20*%
X151940000Y-55193000D03*
X151940000Y-56107000D03*
%TD*%
D21*
%TO.C,Y1*%
X145740000Y-39440000D03*
X144640000Y-39440000D03*
%TD*%
D12*
%TO.C,R11*%
X164640000Y-64813000D03*
X164640000Y-65727000D03*
%TD*%
D22*
%TO.C,C4*%
X163550000Y-62830000D03*
X163550000Y-63810000D03*
%TD*%
D12*
%TO.C,R5*%
X127990000Y-50243000D03*
X127990000Y-51157000D03*
%TD*%
%TO.C,R19*%
X164640000Y-50243000D03*
X164640000Y-51157000D03*
%TD*%
%TO.C,R24*%
X156320000Y-56107000D03*
X156320000Y-55193000D03*
%TD*%
D13*
%TO.C,D1*%
X156340000Y-78385000D03*
X156340000Y-76935000D03*
%TD*%
D19*
%TO.C,R17*%
X129283000Y-61740000D03*
X130197000Y-61740000D03*
%TD*%
D22*
%TO.C,C5*%
X115200000Y-60490000D03*
X115200000Y-61470000D03*
%TD*%
D12*
%TO.C,R6*%
X113780000Y-84157000D03*
X113780000Y-83243000D03*
%TD*%
D23*
%TO.C,U2*%
X127660000Y-46020000D03*
X126710000Y-46020000D03*
X125760000Y-46020000D03*
X125760000Y-49020000D03*
X126710000Y-49020000D03*
X127660000Y-49020000D03*
D24*
X126710000Y-47520000D03*
%TD*%
D22*
%TO.C,C3*%
X163550000Y-82550000D03*
X163550000Y-81570000D03*
%TD*%
D12*
%TO.C,R6*%
X148280000Y-67407000D03*
X148280000Y-66493000D03*
%TD*%
D25*
%TO.C,D2*%
X163565000Y-50150000D03*
X163565000Y-51150000D03*
%TD*%
D19*
%TO.C,R21*%
X111107000Y-48700000D03*
X110193000Y-48700000D03*
%TD*%
D13*
%TO.C,D1*%
X156340000Y-44885000D03*
X156340000Y-43435000D03*
%TD*%
D12*
%TO.C,R4*%
X119640000Y-56107000D03*
X119640000Y-55193000D03*
%TD*%
%TO.C,R11*%
X130140000Y-64813000D03*
X130140000Y-65727000D03*
%TD*%
D18*
%TO.C,C11*%
X112850000Y-48710000D03*
X113830000Y-48710000D03*
%TD*%
D12*
%TO.C,R10*%
X150840000Y-38443000D03*
X150840000Y-39357000D03*
%TD*%
D20*
%TO.C,CR1*%
X123250000Y-44720700D03*
X123250000Y-43679300D03*
%TD*%
D12*
%TO.C,R25*%
X159620000Y-39357000D03*
X159620000Y-38443000D03*
%TD*%
D19*
%TO.C,R21*%
X111107000Y-65450000D03*
X110193000Y-65450000D03*
%TD*%
D12*
%TO.C,R2*%
X154110000Y-78147000D03*
X154110000Y-77233000D03*
%TD*%
%TO.C,R25*%
X125120000Y-39357000D03*
X125120000Y-38443000D03*
%TD*%
%TO.C,R1*%
X153010000Y-44647000D03*
X153010000Y-43733000D03*
%TD*%
%TO.C,R22*%
X161820000Y-38443000D03*
X161820000Y-39357000D03*
%TD*%
%TO.C,R14*%
X125710000Y-43733000D03*
X125710000Y-44647000D03*
%TD*%
D26*
%TO.C,U6*%
X159770000Y-57310000D03*
X159120000Y-57310000D03*
X158470000Y-57310000D03*
X158470000Y-59130000D03*
X159120000Y-59130000D03*
X159770000Y-59130000D03*
D27*
X158645000Y-58220000D03*
X159595000Y-58220000D03*
%TD*%
D12*
%TO.C,R20*%
X117440000Y-71943000D03*
X117440000Y-72857000D03*
%TD*%
D19*
%TO.C,R21*%
X145607000Y-65450000D03*
X144693000Y-65450000D03*
%TD*%
D12*
%TO.C,R20*%
X117440000Y-38443000D03*
X117440000Y-39357000D03*
%TD*%
D25*
%TO.C,D2*%
X129065000Y-83650000D03*
X129065000Y-84650000D03*
%TD*%
D18*
%TO.C,C9*%
X110210000Y-40700000D03*
X109230000Y-40700000D03*
%TD*%
%TO.C,C9*%
X144710000Y-57450000D03*
X143730000Y-57450000D03*
%TD*%
D19*
%TO.C,R18*%
X132097000Y-78490000D03*
X131183000Y-78490000D03*
%TD*%
D22*
%TO.C,C1*%
X120700000Y-60490000D03*
X120700000Y-61470000D03*
%TD*%
D18*
%TO.C,C13*%
X114190000Y-71990000D03*
X113210000Y-71990000D03*
%TD*%
D12*
%TO.C,R16*%
X158520000Y-72857000D03*
X158520000Y-71943000D03*
%TD*%
D19*
%TO.C,R17*%
X163783000Y-61740000D03*
X164697000Y-61740000D03*
%TD*%
D23*
%TO.C,U2*%
X127660000Y-62770000D03*
X126710000Y-62770000D03*
X125760000Y-62770000D03*
X125760000Y-65770000D03*
X126710000Y-65770000D03*
X127660000Y-65770000D03*
D24*
X126710000Y-64270000D03*
%TD*%
D25*
%TO.C,D2*%
X129065000Y-50150000D03*
X129065000Y-51150000D03*
%TD*%
D26*
%TO.C,U6*%
X159770000Y-74060000D03*
X159120000Y-74060000D03*
X158470000Y-74060000D03*
X158470000Y-75880000D03*
X159120000Y-75880000D03*
X159770000Y-75880000D03*
D27*
X158645000Y-74970000D03*
X159595000Y-74970000D03*
%TD*%
D26*
%TO.C,U5*%
X157250000Y-57310000D03*
X156600000Y-57310000D03*
X155950000Y-57310000D03*
X155950000Y-59130000D03*
X156600000Y-59130000D03*
X157250000Y-59130000D03*
D27*
X156125000Y-58220000D03*
X157075000Y-58220000D03*
%TD*%
D12*
%TO.C,R10*%
X116340000Y-38443000D03*
X116340000Y-39357000D03*
%TD*%
D18*
%TO.C,C10*%
X148690000Y-57400000D03*
X147710000Y-57400000D03*
%TD*%
D12*
%TO.C,R1*%
X153010000Y-78147000D03*
X153010000Y-77233000D03*
%TD*%
D18*
%TO.C,C11*%
X147350000Y-65460000D03*
X148330000Y-65460000D03*
%TD*%
D19*
%TO.C,R18*%
X132097000Y-61740000D03*
X131183000Y-61740000D03*
%TD*%
D18*
%TO.C,C9*%
X144710000Y-74200000D03*
X143730000Y-74200000D03*
%TD*%
D12*
%TO.C,R25*%
X159620000Y-56107000D03*
X159620000Y-55193000D03*
%TD*%
D18*
%TO.C,C12*%
X114190000Y-39570000D03*
X113210000Y-39570000D03*
%TD*%
D12*
%TO.C,R8*%
X160340000Y-51157000D03*
X160340000Y-50243000D03*
%TD*%
D28*
%TO.C,J2*%
X129540000Y-39440000D03*
X129540000Y-39940000D03*
X129540000Y-40440000D03*
X129540000Y-40940000D03*
X129540000Y-41440000D03*
X129540000Y-41940000D03*
X129540000Y-42440000D03*
X129540000Y-42940000D03*
D29*
X132040000Y-38440000D03*
X132040000Y-43940000D03*
%TD*%
D22*
%TO.C,C3*%
X163550000Y-49050000D03*
X163550000Y-48070000D03*
%TD*%
D21*
%TO.C,Y1*%
X111240000Y-56190000D03*
X110140000Y-56190000D03*
%TD*%
D18*
%TO.C,C12*%
X148690000Y-39570000D03*
X147710000Y-39570000D03*
%TD*%
D12*
%TO.C,R22*%
X161820000Y-71943000D03*
X161820000Y-72857000D03*
%TD*%
D23*
%TO.C,U2*%
X162160000Y-46020000D03*
X161210000Y-46020000D03*
X160260000Y-46020000D03*
X160260000Y-49020000D03*
X161210000Y-49020000D03*
X162160000Y-49020000D03*
D24*
X161210000Y-47520000D03*
%TD*%
D22*
%TO.C,C4*%
X129050000Y-46080000D03*
X129050000Y-47060000D03*
%TD*%
D13*
%TO.C,D1*%
X121840000Y-61635000D03*
X121840000Y-60185000D03*
%TD*%
D11*
%TO.C,U3*%
X115190000Y-42350000D03*
X115690000Y-42350000D03*
X116190000Y-42350000D03*
X116690000Y-42350000D03*
X117190000Y-42350000D03*
X117690000Y-42350000D03*
X117690000Y-40650000D03*
X117190000Y-40650000D03*
X116690000Y-40650000D03*
X116190000Y-40650000D03*
X115690000Y-40650000D03*
X115190000Y-40650000D03*
%TD*%
%TO.C,U3*%
X149690000Y-75850000D03*
X150190000Y-75850000D03*
X150690000Y-75850000D03*
X151190000Y-75850000D03*
X151690000Y-75850000D03*
X152190000Y-75850000D03*
X152190000Y-74150000D03*
X151690000Y-74150000D03*
X151190000Y-74150000D03*
X150690000Y-74150000D03*
X150190000Y-74150000D03*
X149690000Y-74150000D03*
%TD*%
D12*
%TO.C,R23*%
X164640000Y-62823000D03*
X164640000Y-63737000D03*
%TD*%
%TO.C,R10*%
X150840000Y-71943000D03*
X150840000Y-72857000D03*
%TD*%
%TO.C,R16*%
X124020000Y-72857000D03*
X124020000Y-71943000D03*
%TD*%
D26*
%TO.C,U7*%
X162290000Y-40560000D03*
X161640000Y-40560000D03*
X160990000Y-40560000D03*
X160990000Y-42380000D03*
X161640000Y-42380000D03*
X162290000Y-42380000D03*
D27*
X161165000Y-41470000D03*
X162115000Y-41470000D03*
%TD*%
D26*
%TO.C,U6*%
X125270000Y-40560000D03*
X124620000Y-40560000D03*
X123970000Y-40560000D03*
X123970000Y-42380000D03*
X124620000Y-42380000D03*
X125270000Y-42380000D03*
D27*
X124145000Y-41470000D03*
X125095000Y-41470000D03*
%TD*%
D26*
%TO.C,U5*%
X122750000Y-74060000D03*
X122100000Y-74060000D03*
X121450000Y-74060000D03*
X121450000Y-75880000D03*
X122100000Y-75880000D03*
X122750000Y-75880000D03*
D27*
X121625000Y-74970000D03*
X122575000Y-74970000D03*
%TD*%
D11*
%TO.C,U3*%
X149690000Y-42350000D03*
X150190000Y-42350000D03*
X150690000Y-42350000D03*
X151190000Y-42350000D03*
X151690000Y-42350000D03*
X152190000Y-42350000D03*
X152190000Y-40650000D03*
X151690000Y-40650000D03*
X151190000Y-40650000D03*
X150690000Y-40650000D03*
X150190000Y-40650000D03*
X149690000Y-40650000D03*
%TD*%
D18*
%TO.C,C11*%
X112850000Y-82210000D03*
X113830000Y-82210000D03*
%TD*%
D30*
%TO.C,U4*%
X140557000Y-80975000D03*
X141777000Y-80975000D03*
X143005000Y-80975000D03*
X143430000Y-80325000D03*
X143855000Y-80975000D03*
X144705000Y-80975000D03*
X146405000Y-80975000D03*
X146830000Y-80325000D03*
X147255000Y-80975000D03*
X147680000Y-80325000D03*
X148335000Y-80975000D03*
X148335000Y-79900000D03*
X148335000Y-79050000D03*
X148335000Y-78200000D03*
X148335000Y-77350000D03*
X147680000Y-76925000D03*
X148335000Y-76500000D03*
X147680000Y-76075000D03*
X148335000Y-75425000D03*
X147255000Y-75425000D03*
X145130000Y-76075000D03*
X143005000Y-75425000D03*
X141777000Y-75425000D03*
X140557000Y-75425000D03*
X143430000Y-79475000D03*
X145130000Y-79475000D03*
X146830000Y-78200000D03*
X145130000Y-76925000D03*
X143430000Y-76925000D03*
X143430000Y-78200000D03*
%TD*%
D12*
%TO.C,R22*%
X127320000Y-71943000D03*
X127320000Y-72857000D03*
%TD*%
D18*
%TO.C,C8*%
X145720000Y-57450000D03*
X146700000Y-57450000D03*
%TD*%
D22*
%TO.C,C1*%
X120700000Y-77240000D03*
X120700000Y-78220000D03*
%TD*%
%TO.C,C2*%
X120730000Y-56180000D03*
X120730000Y-55200000D03*
%TD*%
D12*
%TO.C,R8*%
X125840000Y-84657000D03*
X125840000Y-83743000D03*
%TD*%
D22*
%TO.C,C6*%
X116290000Y-60490000D03*
X116290000Y-61470000D03*
%TD*%
D18*
%TO.C,C13*%
X148690000Y-38490000D03*
X147710000Y-38490000D03*
%TD*%
D12*
%TO.C,R1*%
X118510000Y-78147000D03*
X118510000Y-77233000D03*
%TD*%
%TO.C,R25*%
X159620000Y-72857000D03*
X159620000Y-71943000D03*
%TD*%
D22*
%TO.C,C6*%
X150790000Y-77240000D03*
X150790000Y-78220000D03*
%TD*%
D18*
%TO.C,C12*%
X114190000Y-73070000D03*
X113210000Y-73070000D03*
%TD*%
D22*
%TO.C,C6*%
X150790000Y-43740000D03*
X150790000Y-44720000D03*
%TD*%
D12*
%TO.C,R22*%
X127320000Y-55193000D03*
X127320000Y-56107000D03*
%TD*%
D22*
%TO.C,C6*%
X116290000Y-77240000D03*
X116290000Y-78220000D03*
%TD*%
D12*
%TO.C,R11*%
X164640000Y-48063000D03*
X164640000Y-48977000D03*
%TD*%
D26*
%TO.C,U5*%
X157250000Y-40560000D03*
X156600000Y-40560000D03*
X155950000Y-40560000D03*
X155950000Y-42380000D03*
X156600000Y-42380000D03*
X157250000Y-42380000D03*
D27*
X156125000Y-41470000D03*
X157075000Y-41470000D03*
%TD*%
D12*
%TO.C,R10*%
X116340000Y-71943000D03*
X116340000Y-72857000D03*
%TD*%
D31*
%TO.C,SW1*%
X131765000Y-64305000D03*
X135615000Y-64305000D03*
D32*
X133690000Y-63280000D03*
%TD*%
D12*
%TO.C,R23*%
X130140000Y-79573000D03*
X130140000Y-80487000D03*
%TD*%
%TO.C,R23*%
X164640000Y-79573000D03*
X164640000Y-80487000D03*
%TD*%
D22*
%TO.C,C3*%
X163550000Y-65800000D03*
X163550000Y-64820000D03*
%TD*%
D13*
%TO.C,D1*%
X121840000Y-78385000D03*
X121840000Y-76935000D03*
%TD*%
D22*
%TO.C,C5*%
X149700000Y-43740000D03*
X149700000Y-44720000D03*
%TD*%
D25*
%TO.C,D3*%
X126915000Y-50150000D03*
X126915000Y-51150000D03*
%TD*%
D22*
%TO.C,C7*%
X117410000Y-43740000D03*
X117410000Y-44720000D03*
%TD*%
D23*
%TO.C,U2*%
X162160000Y-79520000D03*
X161210000Y-79520000D03*
X160260000Y-79520000D03*
X160260000Y-82520000D03*
X161210000Y-82520000D03*
X162160000Y-82520000D03*
D24*
X161210000Y-81020000D03*
%TD*%
D12*
%TO.C,R14*%
X160210000Y-43733000D03*
X160210000Y-44647000D03*
%TD*%
%TO.C,R22*%
X127320000Y-38443000D03*
X127320000Y-39357000D03*
%TD*%
D26*
%TO.C,U6*%
X125270000Y-57310000D03*
X124620000Y-57310000D03*
X123970000Y-57310000D03*
X123970000Y-59130000D03*
X124620000Y-59130000D03*
X125270000Y-59130000D03*
D27*
X124145000Y-58220000D03*
X125095000Y-58220000D03*
%TD*%
D12*
%TO.C,R2*%
X119610000Y-78147000D03*
X119610000Y-77233000D03*
%TD*%
D30*
%TO.C,U4*%
X106057000Y-47475000D03*
X107277000Y-47475000D03*
X108505000Y-47475000D03*
X108930000Y-46825000D03*
X109355000Y-47475000D03*
X110205000Y-47475000D03*
X111905000Y-47475000D03*
X112330000Y-46825000D03*
X112755000Y-47475000D03*
X113180000Y-46825000D03*
X113835000Y-47475000D03*
X113835000Y-46400000D03*
X113835000Y-45550000D03*
X113835000Y-44700000D03*
X113835000Y-43850000D03*
X113180000Y-43425000D03*
X113835000Y-43000000D03*
X113180000Y-42575000D03*
X113835000Y-41925000D03*
X112755000Y-41925000D03*
X110630000Y-42575000D03*
X108505000Y-41925000D03*
X107277000Y-41925000D03*
X106057000Y-41925000D03*
X108930000Y-45975000D03*
X110630000Y-45975000D03*
X112330000Y-44700000D03*
X110630000Y-43425000D03*
X108930000Y-43425000D03*
X108930000Y-44700000D03*
%TD*%
D12*
%TO.C,R12*%
X126810000Y-60483000D03*
X126810000Y-61397000D03*
%TD*%
D22*
%TO.C,C1*%
X155200000Y-77240000D03*
X155200000Y-78220000D03*
%TD*%
D18*
%TO.C,C10*%
X114190000Y-74150000D03*
X113210000Y-74150000D03*
%TD*%
D26*
%TO.C,U5*%
X122750000Y-57310000D03*
X122100000Y-57310000D03*
X121450000Y-57310000D03*
X121450000Y-59130000D03*
X122100000Y-59130000D03*
X122750000Y-59130000D03*
D27*
X121625000Y-58220000D03*
X122575000Y-58220000D03*
%TD*%
D22*
%TO.C,C2*%
X155230000Y-39430000D03*
X155230000Y-38450000D03*
%TD*%
D20*
%TO.C,CR1*%
X123250000Y-78220700D03*
X123250000Y-77179300D03*
%TD*%
D28*
%TO.C,J2*%
X164040000Y-39440000D03*
X164040000Y-39940000D03*
X164040000Y-40440000D03*
X164040000Y-40940000D03*
X164040000Y-41440000D03*
X164040000Y-41940000D03*
X164040000Y-42440000D03*
X164040000Y-42940000D03*
D29*
X166540000Y-38440000D03*
X166540000Y-43940000D03*
%TD*%
D12*
%TO.C,R4*%
X154140000Y-56107000D03*
X154140000Y-55193000D03*
%TD*%
D18*
%TO.C,C8*%
X111220000Y-57450000D03*
X112200000Y-57450000D03*
%TD*%
%TO.C,C9*%
X110210000Y-74200000D03*
X109230000Y-74200000D03*
%TD*%
D12*
%TO.C,R5*%
X162490000Y-83743000D03*
X162490000Y-84657000D03*
%TD*%
D23*
%TO.C,U2*%
X162160000Y-62770000D03*
X161210000Y-62770000D03*
X160260000Y-62770000D03*
X160260000Y-65770000D03*
X161210000Y-65770000D03*
X162160000Y-65770000D03*
D24*
X161210000Y-64270000D03*
%TD*%
D12*
%TO.C,R24*%
X121820000Y-72857000D03*
X121820000Y-71943000D03*
%TD*%
D22*
%TO.C,C1*%
X155200000Y-60490000D03*
X155200000Y-61470000D03*
%TD*%
D12*
%TO.C,R12*%
X161310000Y-60483000D03*
X161310000Y-61397000D03*
%TD*%
D26*
%TO.C,U5*%
X157250000Y-74060000D03*
X156600000Y-74060000D03*
X155950000Y-74060000D03*
X155950000Y-75880000D03*
X156600000Y-75880000D03*
X157250000Y-75880000D03*
D27*
X156125000Y-74970000D03*
X157075000Y-74970000D03*
%TD*%
D20*
%TO.C,CR1*%
X157750000Y-78220700D03*
X157750000Y-77179300D03*
%TD*%
D18*
%TO.C,C11*%
X147350000Y-48710000D03*
X148330000Y-48710000D03*
%TD*%
%TO.C,C11*%
X147350000Y-82210000D03*
X148330000Y-82210000D03*
%TD*%
D12*
%TO.C,R16*%
X158520000Y-56107000D03*
X158520000Y-55193000D03*
%TD*%
D26*
%TO.C,U5*%
X122750000Y-40560000D03*
X122100000Y-40560000D03*
X121450000Y-40560000D03*
X121450000Y-42380000D03*
X122100000Y-42380000D03*
X122750000Y-42380000D03*
D27*
X121625000Y-41470000D03*
X122575000Y-41470000D03*
%TD*%
D12*
%TO.C,R8*%
X125840000Y-67907000D03*
X125840000Y-66993000D03*
%TD*%
D19*
%TO.C,R17*%
X129283000Y-78490000D03*
X130197000Y-78490000D03*
%TD*%
D22*
%TO.C,C4*%
X129050000Y-62830000D03*
X129050000Y-63810000D03*
%TD*%
D19*
%TO.C,R21*%
X145607000Y-48700000D03*
X144693000Y-48700000D03*
%TD*%
D26*
%TO.C,U7*%
X162290000Y-74060000D03*
X161640000Y-74060000D03*
X160990000Y-74060000D03*
X160990000Y-75880000D03*
X161640000Y-75880000D03*
X162290000Y-75880000D03*
D27*
X161165000Y-74970000D03*
X162115000Y-74970000D03*
%TD*%
D12*
%TO.C,R24*%
X121820000Y-39357000D03*
X121820000Y-38443000D03*
%TD*%
%TO.C,R15*%
X159110000Y-44647000D03*
X159110000Y-43733000D03*
%TD*%
D19*
%TO.C,R17*%
X163783000Y-78490000D03*
X164697000Y-78490000D03*
%TD*%
D22*
%TO.C,C7*%
X151910000Y-77240000D03*
X151910000Y-78220000D03*
%TD*%
D12*
%TO.C,R13*%
X126220000Y-72857000D03*
X126220000Y-71943000D03*
%TD*%
D21*
%TO.C,Y1*%
X145740000Y-72940000D03*
X144640000Y-72940000D03*
%TD*%
D22*
%TO.C,C3*%
X129050000Y-82550000D03*
X129050000Y-81570000D03*
%TD*%
D18*
%TO.C,C9*%
X110210000Y-57450000D03*
X109230000Y-57450000D03*
%TD*%
D12*
%TO.C,R1*%
X118510000Y-44647000D03*
X118510000Y-43733000D03*
%TD*%
D22*
%TO.C,C5*%
X149700000Y-77240000D03*
X149700000Y-78220000D03*
%TD*%
D12*
%TO.C,R3*%
X118540000Y-39357000D03*
X118540000Y-38443000D03*
%TD*%
D18*
%TO.C,C8*%
X111220000Y-74200000D03*
X112200000Y-74200000D03*
%TD*%
D26*
%TO.C,U7*%
X127790000Y-40560000D03*
X127140000Y-40560000D03*
X126490000Y-40560000D03*
X126490000Y-42380000D03*
X127140000Y-42380000D03*
X127790000Y-42380000D03*
D27*
X126665000Y-41470000D03*
X127615000Y-41470000D03*
%TD*%
D12*
%TO.C,R25*%
X125120000Y-56107000D03*
X125120000Y-55193000D03*
%TD*%
D22*
%TO.C,C7*%
X151910000Y-60490000D03*
X151910000Y-61470000D03*
%TD*%
D12*
%TO.C,R16*%
X124020000Y-39357000D03*
X124020000Y-38443000D03*
%TD*%
%TO.C,R1*%
X118510000Y-61397000D03*
X118510000Y-60483000D03*
%TD*%
%TO.C,R15*%
X159110000Y-78147000D03*
X159110000Y-77233000D03*
%TD*%
%TO.C,R13*%
X126220000Y-56107000D03*
X126220000Y-55193000D03*
%TD*%
%TO.C,R9*%
X115240000Y-55193000D03*
X115240000Y-56107000D03*
%TD*%
%TO.C,R14*%
X125710000Y-77233000D03*
X125710000Y-78147000D03*
%TD*%
D14*
%TO.C,U1*%
X154420000Y-57690000D03*
X154020000Y-57690000D03*
X153620000Y-57690000D03*
X153620000Y-58790000D03*
X154020000Y-58790000D03*
X154420000Y-58790000D03*
%TD*%
D20*
%TO.C,CR1*%
X123250000Y-61470700D03*
X123250000Y-60429300D03*
%TD*%
D12*
%TO.C,R1*%
X153010000Y-61397000D03*
X153010000Y-60483000D03*
%TD*%
%TO.C,R13*%
X160720000Y-72857000D03*
X160720000Y-71943000D03*
%TD*%
%TO.C,R15*%
X159110000Y-61397000D03*
X159110000Y-60483000D03*
%TD*%
D19*
%TO.C,R18*%
X166597000Y-44990000D03*
X165683000Y-44990000D03*
%TD*%
D12*
%TO.C,R6*%
X148280000Y-50657000D03*
X148280000Y-49743000D03*
%TD*%
%TO.C,R19*%
X164640000Y-66993000D03*
X164640000Y-67907000D03*
%TD*%
%TO.C,R24*%
X121820000Y-56107000D03*
X121820000Y-55193000D03*
%TD*%
D20*
%TO.C,CR1*%
X157750000Y-61470700D03*
X157750000Y-60429300D03*
%TD*%
D11*
%TO.C,U3*%
X115190000Y-75850000D03*
X115690000Y-75850000D03*
X116190000Y-75850000D03*
X116690000Y-75850000D03*
X117190000Y-75850000D03*
X117690000Y-75850000D03*
X117690000Y-74150000D03*
X117190000Y-74150000D03*
X116690000Y-74150000D03*
X116190000Y-74150000D03*
X115690000Y-74150000D03*
X115190000Y-74150000D03*
%TD*%
D22*
%TO.C,C7*%
X117410000Y-60490000D03*
X117410000Y-61470000D03*
%TD*%
D12*
%TO.C,R15*%
X124610000Y-61397000D03*
X124610000Y-60483000D03*
%TD*%
%TO.C,R2*%
X119610000Y-44647000D03*
X119610000Y-43733000D03*
%TD*%
D18*
%TO.C,C8*%
X145720000Y-40700000D03*
X146700000Y-40700000D03*
%TD*%
D12*
%TO.C,R9*%
X149740000Y-71943000D03*
X149740000Y-72857000D03*
%TD*%
%TO.C,R8*%
X125840000Y-51157000D03*
X125840000Y-50243000D03*
%TD*%
%TO.C,R11*%
X130140000Y-48063000D03*
X130140000Y-48977000D03*
%TD*%
D28*
%TO.C,J2*%
X129540000Y-72940000D03*
X129540000Y-73440000D03*
X129540000Y-73940000D03*
X129540000Y-74440000D03*
X129540000Y-74940000D03*
X129540000Y-75440000D03*
X129540000Y-75940000D03*
X129540000Y-76440000D03*
D29*
X132040000Y-71940000D03*
X132040000Y-77440000D03*
%TD*%
D12*
%TO.C,R9*%
X115240000Y-38443000D03*
X115240000Y-39357000D03*
%TD*%
%TO.C,R9*%
X149740000Y-55193000D03*
X149740000Y-56107000D03*
%TD*%
%TO.C,R12*%
X126810000Y-43733000D03*
X126810000Y-44647000D03*
%TD*%
%TO.C,R23*%
X130140000Y-62823000D03*
X130140000Y-63737000D03*
%TD*%
D25*
%TO.C,D3*%
X126915000Y-83650000D03*
X126915000Y-84650000D03*
%TD*%
D30*
%TO.C,U4*%
X140557000Y-64225000D03*
X141777000Y-64225000D03*
X143005000Y-64225000D03*
X143430000Y-63575000D03*
X143855000Y-64225000D03*
X144705000Y-64225000D03*
X146405000Y-64225000D03*
X146830000Y-63575000D03*
X147255000Y-64225000D03*
X147680000Y-63575000D03*
X148335000Y-64225000D03*
X148335000Y-63150000D03*
X148335000Y-62300000D03*
X148335000Y-61450000D03*
X148335000Y-60600000D03*
X147680000Y-60175000D03*
X148335000Y-59750000D03*
X147680000Y-59325000D03*
X148335000Y-58675000D03*
X147255000Y-58675000D03*
X145130000Y-59325000D03*
X143005000Y-58675000D03*
X141777000Y-58675000D03*
X140557000Y-58675000D03*
X143430000Y-62725000D03*
X145130000Y-62725000D03*
X146830000Y-61450000D03*
X145130000Y-60175000D03*
X143430000Y-60175000D03*
X143430000Y-61450000D03*
%TD*%
D12*
%TO.C,R2*%
X119610000Y-61397000D03*
X119610000Y-60483000D03*
%TD*%
D22*
%TO.C,C7*%
X151910000Y-43740000D03*
X151910000Y-44720000D03*
%TD*%
D28*
%TO.C,J2*%
X164040000Y-72940000D03*
X164040000Y-73440000D03*
X164040000Y-73940000D03*
X164040000Y-74440000D03*
X164040000Y-74940000D03*
X164040000Y-75440000D03*
X164040000Y-75940000D03*
X164040000Y-76440000D03*
D29*
X166540000Y-71940000D03*
X166540000Y-77440000D03*
%TD*%
D25*
%TO.C,D2*%
X163565000Y-83650000D03*
X163565000Y-84650000D03*
%TD*%
D12*
%TO.C,R6*%
X113780000Y-67407000D03*
X113780000Y-66493000D03*
%TD*%
%TO.C,R13*%
X126220000Y-39357000D03*
X126220000Y-38443000D03*
%TD*%
D22*
%TO.C,C4*%
X163550000Y-46080000D03*
X163550000Y-47060000D03*
%TD*%
%TO.C,C5*%
X115200000Y-77240000D03*
X115200000Y-78220000D03*
%TD*%
D12*
%TO.C,R25*%
X125120000Y-72857000D03*
X125120000Y-71943000D03*
%TD*%
D25*
%TO.C,D2*%
X129065000Y-66900000D03*
X129065000Y-67900000D03*
%TD*%
D18*
%TO.C,C10*%
X148690000Y-40650000D03*
X147710000Y-40650000D03*
%TD*%
D12*
%TO.C,R10*%
X116340000Y-55193000D03*
X116340000Y-56107000D03*
%TD*%
%TO.C,R3*%
X118540000Y-56107000D03*
X118540000Y-55193000D03*
%TD*%
%TO.C,R26*%
X122920000Y-39357000D03*
X122920000Y-38443000D03*
%TD*%
%TO.C,R16*%
X158520000Y-39357000D03*
X158520000Y-38443000D03*
%TD*%
D18*
%TO.C,C12*%
X148690000Y-73070000D03*
X147710000Y-73070000D03*
%TD*%
%TO.C,C13*%
X114190000Y-38490000D03*
X113210000Y-38490000D03*
%TD*%
D25*
%TO.C,D3*%
X161415000Y-83650000D03*
X161415000Y-84650000D03*
%TD*%
D26*
%TO.C,U6*%
X125270000Y-74060000D03*
X124620000Y-74060000D03*
X123970000Y-74060000D03*
X123970000Y-75880000D03*
X124620000Y-75880000D03*
X125270000Y-75880000D03*
D27*
X124145000Y-74970000D03*
X125095000Y-74970000D03*
%TD*%
D28*
%TO.C,J2*%
X164040000Y-56190000D03*
X164040000Y-56690000D03*
X164040000Y-57190000D03*
X164040000Y-57690000D03*
X164040000Y-58190000D03*
X164040000Y-58690000D03*
X164040000Y-59190000D03*
X164040000Y-59690000D03*
D29*
X166540000Y-55190000D03*
X166540000Y-60690000D03*
%TD*%
D12*
%TO.C,R14*%
X160210000Y-77233000D03*
X160210000Y-78147000D03*
%TD*%
%TO.C,R19*%
X164640000Y-83743000D03*
X164640000Y-84657000D03*
%TD*%
D13*
%TO.C,D1*%
X156340000Y-61635000D03*
X156340000Y-60185000D03*
%TD*%
D12*
%TO.C,R3*%
X118540000Y-72857000D03*
X118540000Y-71943000D03*
%TD*%
%TO.C,R26*%
X122920000Y-56107000D03*
X122920000Y-55193000D03*
%TD*%
D22*
%TO.C,C5*%
X149700000Y-60490000D03*
X149700000Y-61470000D03*
%TD*%
D12*
%TO.C,R26*%
X157420000Y-56107000D03*
X157420000Y-55193000D03*
%TD*%
%TO.C,R24*%
X156320000Y-39357000D03*
X156320000Y-38443000D03*
%TD*%
D22*
%TO.C,C2*%
X155230000Y-72930000D03*
X155230000Y-71950000D03*
%TD*%
D18*
%TO.C,C12*%
X148690000Y-56320000D03*
X147710000Y-56320000D03*
%TD*%
D12*
%TO.C,R4*%
X119640000Y-72857000D03*
X119640000Y-71943000D03*
%TD*%
D22*
%TO.C,C4*%
X163550000Y-79580000D03*
X163550000Y-80560000D03*
%TD*%
%TO.C,C5*%
X115200000Y-43740000D03*
X115200000Y-44720000D03*
%TD*%
D12*
%TO.C,R3*%
X153040000Y-72857000D03*
X153040000Y-71943000D03*
%TD*%
D18*
%TO.C,C8*%
X145720000Y-74200000D03*
X146700000Y-74200000D03*
%TD*%
D12*
%TO.C,R8*%
X160340000Y-84657000D03*
X160340000Y-83743000D03*
%TD*%
D14*
%TO.C,U1*%
X119920000Y-57690000D03*
X119520000Y-57690000D03*
X119120000Y-57690000D03*
X119120000Y-58790000D03*
X119520000Y-58790000D03*
X119920000Y-58790000D03*
%TD*%
D23*
%TO.C,U2*%
X127660000Y-79520000D03*
X126710000Y-79520000D03*
X125760000Y-79520000D03*
X125760000Y-82520000D03*
X126710000Y-82520000D03*
X127660000Y-82520000D03*
D24*
X126710000Y-81020000D03*
%TD*%
D12*
%TO.C,R4*%
X154140000Y-72857000D03*
X154140000Y-71943000D03*
%TD*%
D22*
%TO.C,C2*%
X120730000Y-72930000D03*
X120730000Y-71950000D03*
%TD*%
D21*
%TO.C,Y1*%
X111240000Y-39440000D03*
X110140000Y-39440000D03*
%TD*%
D12*
%TO.C,R16*%
X124020000Y-56107000D03*
X124020000Y-55193000D03*
%TD*%
D22*
%TO.C,C2*%
X120730000Y-39430000D03*
X120730000Y-38450000D03*
%TD*%
%TO.C,C3*%
X129050000Y-65800000D03*
X129050000Y-64820000D03*
%TD*%
%TO.C,C6*%
X150790000Y-60490000D03*
X150790000Y-61470000D03*
%TD*%
D28*
%TO.C,J2*%
X129540000Y-56190000D03*
X129540000Y-56690000D03*
X129540000Y-57190000D03*
X129540000Y-57690000D03*
X129540000Y-58190000D03*
X129540000Y-58690000D03*
X129540000Y-59190000D03*
X129540000Y-59690000D03*
D29*
X132040000Y-55190000D03*
X132040000Y-60690000D03*
%TD*%
D18*
%TO.C,C13*%
X148690000Y-71990000D03*
X147710000Y-71990000D03*
%TD*%
D12*
%TO.C,R5*%
X162490000Y-50243000D03*
X162490000Y-51157000D03*
%TD*%
%TO.C,R12*%
X126810000Y-77233000D03*
X126810000Y-78147000D03*
%TD*%
D31*
%TO.C,SW1*%
X131765000Y-47555000D03*
X135615000Y-47555000D03*
D32*
X133690000Y-46530000D03*
%TD*%
D12*
%TO.C,R11*%
X130140000Y-81563000D03*
X130140000Y-82477000D03*
%TD*%
D14*
%TO.C,U1*%
X119920000Y-40940000D03*
X119520000Y-40940000D03*
X119120000Y-40940000D03*
X119120000Y-42040000D03*
X119520000Y-42040000D03*
X119920000Y-42040000D03*
%TD*%
D26*
%TO.C,U7*%
X162290000Y-57310000D03*
X161640000Y-57310000D03*
X160990000Y-57310000D03*
X160990000Y-59130000D03*
X161640000Y-59130000D03*
X162290000Y-59130000D03*
D27*
X161165000Y-58220000D03*
X162115000Y-58220000D03*
%TD*%
D31*
%TO.C,SW1*%
X131765000Y-81055000D03*
X135615000Y-81055000D03*
D32*
X133690000Y-80030000D03*
%TD*%
D12*
%TO.C,R5*%
X127990000Y-83743000D03*
X127990000Y-84657000D03*
%TD*%
D19*
%TO.C,R17*%
X163783000Y-44990000D03*
X164697000Y-44990000D03*
%TD*%
D15*
%TO.C,J1*%
X153770000Y-63240000D03*
D16*
X155790000Y-63240000D03*
D17*
X157020000Y-63240000D03*
D15*
X154770000Y-63240000D03*
D16*
X152750000Y-63240000D03*
D17*
X151520000Y-63240000D03*
%TD*%
D22*
%TO.C,C1*%
X120700000Y-43740000D03*
X120700000Y-44720000D03*
%TD*%
D25*
%TO.C,D2*%
X163565000Y-66900000D03*
X163565000Y-67900000D03*
%TD*%
D12*
%TO.C,R4*%
X119640000Y-39357000D03*
X119640000Y-38443000D03*
%TD*%
D26*
%TO.C,U7*%
X127790000Y-74060000D03*
X127140000Y-74060000D03*
X126490000Y-74060000D03*
X126490000Y-75880000D03*
X127140000Y-75880000D03*
X127790000Y-75880000D03*
D27*
X126665000Y-74970000D03*
X127615000Y-74970000D03*
%TD*%
D18*
%TO.C,C10*%
X114190000Y-40650000D03*
X113210000Y-40650000D03*
%TD*%
D12*
%TO.C,R19*%
X130140000Y-83743000D03*
X130140000Y-84657000D03*
%TD*%
D19*
%TO.C,R18*%
X166597000Y-61740000D03*
X165683000Y-61740000D03*
%TD*%
D31*
%TO.C,SW1*%
X166265000Y-81055000D03*
X170115000Y-81055000D03*
D32*
X168190000Y-80030000D03*
%TD*%
D15*
%TO.C,J1*%
X153770000Y-46490000D03*
D16*
X155790000Y-46490000D03*
D17*
X157020000Y-46490000D03*
D15*
X154770000Y-46490000D03*
D16*
X152750000Y-46490000D03*
D17*
X151520000Y-46490000D03*
%TD*%
D12*
%TO.C,R9*%
X149740000Y-38443000D03*
X149740000Y-39357000D03*
%TD*%
%TO.C,R15*%
X124610000Y-78147000D03*
X124610000Y-77233000D03*
%TD*%
%TO.C,R8*%
X160340000Y-67907000D03*
X160340000Y-66993000D03*
%TD*%
%TO.C,R4*%
X154140000Y-39357000D03*
X154140000Y-38443000D03*
%TD*%
%TO.C,R20*%
X117440000Y-55193000D03*
X117440000Y-56107000D03*
%TD*%
D21*
%TO.C,Y1*%
X111240000Y-72940000D03*
X110140000Y-72940000D03*
%TD*%
D12*
%TO.C,R9*%
X115240000Y-71943000D03*
X115240000Y-72857000D03*
%TD*%
D18*
%TO.C,C11*%
X112850000Y-65460000D03*
X113830000Y-65460000D03*
%TD*%
D22*
%TO.C,C4*%
X129050000Y-79580000D03*
X129050000Y-80560000D03*
%TD*%
D26*
%TO.C,U7*%
X127790000Y-57310000D03*
X127140000Y-57310000D03*
X126490000Y-57310000D03*
X126490000Y-59130000D03*
X127140000Y-59130000D03*
X127790000Y-59130000D03*
D27*
X126665000Y-58220000D03*
X127615000Y-58220000D03*
%TD*%
D25*
%TO.C,D3*%
X161415000Y-66900000D03*
X161415000Y-67900000D03*
%TD*%
D30*
%TO.C,U4*%
X106057000Y-80975000D03*
X107277000Y-80975000D03*
X108505000Y-80975000D03*
X108930000Y-80325000D03*
X109355000Y-80975000D03*
X110205000Y-80975000D03*
X111905000Y-80975000D03*
X112330000Y-80325000D03*
X112755000Y-80975000D03*
X113180000Y-80325000D03*
X113835000Y-80975000D03*
X113835000Y-79900000D03*
X113835000Y-79050000D03*
X113835000Y-78200000D03*
X113835000Y-77350000D03*
X113180000Y-76925000D03*
X113835000Y-76500000D03*
X113180000Y-76075000D03*
X113835000Y-75425000D03*
X112755000Y-75425000D03*
X110630000Y-76075000D03*
X108505000Y-75425000D03*
X107277000Y-75425000D03*
X106057000Y-75425000D03*
X108930000Y-79475000D03*
X110630000Y-79475000D03*
X112330000Y-78200000D03*
X110630000Y-76925000D03*
X108930000Y-76925000D03*
X108930000Y-78200000D03*
%TD*%
D12*
%TO.C,R12*%
X161310000Y-43733000D03*
X161310000Y-44647000D03*
%TD*%
%TO.C,R22*%
X161820000Y-55193000D03*
X161820000Y-56107000D03*
%TD*%
D21*
%TO.C,Y1*%
X145740000Y-56190000D03*
X144640000Y-56190000D03*
%TD*%
D19*
%TO.C,R17*%
X129283000Y-44990000D03*
X130197000Y-44990000D03*
%TD*%
D18*
%TO.C,C13*%
X114190000Y-55240000D03*
X113210000Y-55240000D03*
%TD*%
D12*
%TO.C,R6*%
X113780000Y-50657000D03*
X113780000Y-49743000D03*
%TD*%
%TO.C,R20*%
X151940000Y-71943000D03*
X151940000Y-72857000D03*
%TD*%
%TO.C,R5*%
X162490000Y-66993000D03*
X162490000Y-67907000D03*
%TD*%
D30*
%TO.C,U4*%
X140557000Y-47475000D03*
X141777000Y-47475000D03*
X143005000Y-47475000D03*
X143430000Y-46825000D03*
X143855000Y-47475000D03*
X144705000Y-47475000D03*
X146405000Y-47475000D03*
X146830000Y-46825000D03*
X147255000Y-47475000D03*
X147680000Y-46825000D03*
X148335000Y-47475000D03*
X148335000Y-46400000D03*
X148335000Y-45550000D03*
X148335000Y-44700000D03*
X148335000Y-43850000D03*
X147680000Y-43425000D03*
X148335000Y-43000000D03*
X147680000Y-42575000D03*
X148335000Y-41925000D03*
X147255000Y-41925000D03*
X145130000Y-42575000D03*
X143005000Y-41925000D03*
X141777000Y-41925000D03*
X140557000Y-41925000D03*
X143430000Y-45975000D03*
X145130000Y-45975000D03*
X146830000Y-44700000D03*
X145130000Y-43425000D03*
X143430000Y-43425000D03*
X143430000Y-44700000D03*
%TD*%
D12*
%TO.C,R23*%
X130140000Y-46073000D03*
X130140000Y-46987000D03*
%TD*%
%TO.C,R2*%
X154110000Y-44647000D03*
X154110000Y-43733000D03*
%TD*%
%TO.C,R15*%
X124610000Y-44647000D03*
X124610000Y-43733000D03*
%TD*%
D26*
%TO.C,U6*%
X159770000Y-40560000D03*
X159120000Y-40560000D03*
X158470000Y-40560000D03*
X158470000Y-42380000D03*
X159120000Y-42380000D03*
X159770000Y-42380000D03*
D27*
X158645000Y-41470000D03*
X159595000Y-41470000D03*
%TD*%
D19*
%TO.C,R21*%
X145607000Y-82200000D03*
X144693000Y-82200000D03*
%TD*%
D12*
%TO.C,R13*%
X160720000Y-39357000D03*
X160720000Y-38443000D03*
%TD*%
D22*
%TO.C,C7*%
X117410000Y-77240000D03*
X117410000Y-78220000D03*
%TD*%
D19*
%TO.C,R18*%
X166597000Y-78490000D03*
X165683000Y-78490000D03*
%TD*%
D18*
%TO.C,C10*%
X148690000Y-74150000D03*
X147710000Y-74150000D03*
%TD*%
D12*
%TO.C,R5*%
X127990000Y-66993000D03*
X127990000Y-67907000D03*
%TD*%
D18*
%TO.C,C13*%
X148690000Y-55240000D03*
X147710000Y-55240000D03*
%TD*%
D12*
%TO.C,R3*%
X153040000Y-39357000D03*
X153040000Y-38443000D03*
%TD*%
D31*
%TO.C,SW1*%
X166265000Y-47555000D03*
X170115000Y-47555000D03*
D32*
X168190000Y-46530000D03*
%TD*%
D22*
%TO.C,C3*%
X129050000Y-49050000D03*
X129050000Y-48070000D03*
%TD*%
D14*
%TO.C,U1*%
X154420000Y-74440000D03*
X154020000Y-74440000D03*
X153620000Y-74440000D03*
X153620000Y-75540000D03*
X154020000Y-75540000D03*
X154420000Y-75540000D03*
%TD*%
D12*
%TO.C,R6*%
X148280000Y-84157000D03*
X148280000Y-83243000D03*
%TD*%
D18*
%TO.C,C8*%
X111220000Y-40700000D03*
X112200000Y-40700000D03*
%TD*%
D22*
%TO.C,C2*%
X155230000Y-56180000D03*
X155230000Y-55200000D03*
%TD*%
D18*
%TO.C,C9*%
X144710000Y-40700000D03*
X143730000Y-40700000D03*
%TD*%
D15*
%TO.C,J1*%
X119270000Y-63240000D03*
D16*
X121290000Y-63240000D03*
D17*
X122520000Y-63240000D03*
D15*
X120270000Y-63240000D03*
D16*
X118250000Y-63240000D03*
D17*
X117020000Y-63240000D03*
%TD*%
D22*
%TO.C,C6*%
X116290000Y-43740000D03*
X116290000Y-44720000D03*
%TD*%
D19*
%TO.C,R21*%
X111107000Y-82200000D03*
X110193000Y-82200000D03*
%TD*%
D31*
%TO.C,SW1*%
X166265000Y-64305000D03*
X170115000Y-64305000D03*
D32*
X168190000Y-63280000D03*
%TD*%
D25*
%TO.C,D3*%
X126915000Y-66900000D03*
X126915000Y-67900000D03*
%TD*%
%TO.C,D3*%
X161415000Y-50150000D03*
X161415000Y-51150000D03*
%TD*%
D22*
%TO.C,C1*%
X155200000Y-43740000D03*
X155200000Y-44720000D03*
%TD*%
D12*
%TO.C,R24*%
X156320000Y-72857000D03*
X156320000Y-71943000D03*
%TD*%
D30*
%TO.C,U4*%
X106057000Y-64225000D03*
X107277000Y-64225000D03*
X108505000Y-64225000D03*
X108930000Y-63575000D03*
X109355000Y-64225000D03*
X110205000Y-64225000D03*
X111905000Y-64225000D03*
X112330000Y-63575000D03*
X112755000Y-64225000D03*
X113180000Y-63575000D03*
X113835000Y-64225000D03*
X113835000Y-63150000D03*
X113835000Y-62300000D03*
X113835000Y-61450000D03*
X113835000Y-60600000D03*
X113180000Y-60175000D03*
X113835000Y-59750000D03*
X113180000Y-59325000D03*
X113835000Y-58675000D03*
X112755000Y-58675000D03*
X110630000Y-59325000D03*
X108505000Y-58675000D03*
X107277000Y-58675000D03*
X106057000Y-58675000D03*
X108930000Y-62725000D03*
X110630000Y-62725000D03*
X112330000Y-61450000D03*
X110630000Y-60175000D03*
X108930000Y-60175000D03*
X108930000Y-61450000D03*
%TD*%
D12*
%TO.C,R19*%
X130140000Y-50243000D03*
X130140000Y-51157000D03*
%TD*%
%TO.C,R20*%
X151940000Y-38443000D03*
X151940000Y-39357000D03*
%TD*%
D18*
%TO.C,C12*%
X114190000Y-56320000D03*
X113210000Y-56320000D03*
%TD*%
D12*
%TO.C,R26*%
X157420000Y-39357000D03*
X157420000Y-38443000D03*
%TD*%
%TO.C,R12*%
X161310000Y-77233000D03*
X161310000Y-78147000D03*
%TD*%
D11*
%TO.C,U3*%
X149690000Y-59100000D03*
X150190000Y-59100000D03*
X150690000Y-59100000D03*
X151190000Y-59100000D03*
X151690000Y-59100000D03*
X152190000Y-59100000D03*
X152190000Y-57400000D03*
X151690000Y-57400000D03*
X151190000Y-57400000D03*
X150690000Y-57400000D03*
X150190000Y-57400000D03*
X149690000Y-57400000D03*
%TD*%
D12*
%TO.C,R19*%
X130140000Y-66993000D03*
X130140000Y-67907000D03*
%TD*%
%TO.C,R10*%
X150840000Y-55193000D03*
X150840000Y-56107000D03*
%TD*%
D15*
%TO.C,J1*%
X119270000Y-46490000D03*
D16*
X121290000Y-46490000D03*
D17*
X122520000Y-46490000D03*
D15*
X120270000Y-46490000D03*
D16*
X118250000Y-46490000D03*
D17*
X117020000Y-46490000D03*
%TD*%
M02*
